<svg viewBox="0 0 100 100" xmlns="http://www.w3.org/2000/svg"><path d="m0 55.218599.049442 13.548052c0 1.190263-.000619 2.380413.00659 3.57058.006165 1.002568.017706 2.004808.044672 3.007126.058883 2.183884.187305 4.386925.574573 6.546712.392826 2.190924 1.034073 4.230153 2.044883 6.220776.993588 1.956677 2.291581 3.746998 3.840215 5.299407 1.548319 1.552212 3.333979 2.853238 5.285477 3.849292 1.986739 1.013976 4.021974 1.657021 6.208786 2.050888 2.153584.387889 4.350407.516444 6.52808.575483.999838.027025 1.999664.038618 2.999696.044698 1.187301.007308 2.662271.068361 3.8495.068361l13.360432-.000376 10.42628.000376 13.548052-.049442c1.190263 0 2.380413.00062 3.57058-.006592 1.002568-.006163 2.004808-.017709 3.007126-.044674 2.183884-.058883 4.386926-.187308 6.546712-.574571 2.190924-.392824 4.230154-1.034075 6.220776-2.04488 1.956677-.993586 3.746998-2.291578 5.299407-3.840214 1.552212-1.54832 2.853239-3.33398 3.849292-5.285477 1.013976-1.986742 1.657021-4.021972 2.050889-6.208789.387889-2.153581.516444-4.350406.575483-6.528079.027025-.999838.038618-1.999664.044698-2.999699.007308-1.187301.068361-2.662271.068361-3.8495l-.000376-13.360434.000376-10.426276-.049442-13.548052c0-1.190263.00062-2.380416-.006592-3.57058-.006163-1.002568-.017709-2.004811-.044674-3.007124-.058883-2.183887-.187308-4.386924-.574571-6.546709-.392824-2.190925-1.034075-4.230152-2.04488-6.220776-.993586-1.956679-2.291578-3.747-3.840214-5.299408-1.54832-1.552214-3.33398-2.853241-5.285478-3.849293-1.986742-1.013976-4.021972-1.65702-6.208783-2.05089-2.153581-.387887-4.350406-.516442-6.52808-.575483-.999838-.027027-1.999664-.038616-2.999699-.044696-1.187303-.007309-2.662273-.068364-3.849502-.068364l-13.360429.000376-10.426277-.000376-13.548052.049442c-1.190263 0-2.380416-.000619-3.57058.00659-1.002568.006165-2.004811.017706-3.007124.044672-2.183887.058883-4.386924.187305-6.54671.574573-2.190927.392826-4.230154 1.034073-6.220777 2.044883-1.95668.993588-3.747001 2.291581-5.299409 3.840215-1.552215 1.548319-2.853242 3.33398-3.849293 5.285477-1.013977 1.98674-1.65702 4.021974-2.05089 6.208786-.387887 2.153584-.516442 4.350407-.575483 6.528081-.027027.999838-.038616 1.999664-.044696 2.999696-.007309 1.187299-.068364 2.66227-.068364 3.849499l.000376 13.360431-.000376 10.426276z" fill="#080a0c" fill-rule="evenodd"/><g fill="#fcfcfd"><path d="m70.58481 52.289526c-3.033447 0-5.676275 1.66617-7.067078 4.132592-.351971.624144-1.005542 1.017052-1.722032 1.017052l-10.841906.000018c-1.717722 0-2.791306-1.85951-1.932445-3.347099l5.420968-9.389334c.356764-.617933 1.019925-.990874 1.733398-.982901 2.917027.032628 5.764085-1.510423 7.250512-4.28696 1.99368-3.724104.751173-8.428025-2.822649-10.680001-3.916806-2.468088-9.06207-1.169532-11.355227 2.80233-1.516712 2.627057-1.395199 5.748871.045386 8.186596.364518.616851.378028 1.379314.019759 1.999852l-5.520061 9.561023c-.359631.622898-1.030129.990653-1.749349.982964-1.402929-.015002-2.82785.333345-4.130992 1.08571-3.879309 2.239716-5.208471 7.200193-2.968752 11.079501s7.20019 5.208438 11.079499 2.968722c1.303145-.752366 2.317291-1.81219 3.005755-3.034669.35294-.626719 1.006675-1.023507 1.725936-1.023519h11.040121c.713521 0 1.368076.387853 1.717913 1.009732 1.430279 2.542508 4.190141 4.236597 7.337868 4.135638 4.333293-.138998 7.82845-3.741109 7.844061-8.07662.016171-4.493159-3.621316-8.140587-8.110684-8.140629zm-25.591693 13.344806c-2.893454 1.670533-6.593302.679171-8.263838-2.214289-1.670545-2.893466-.679162-6.593293 2.214292-8.263826s6.593293-.679159 8.263838 2.214301c1.670524 2.893436.679153 6.593281-2.214292 8.26382z"/><path d="m75.279951 77.739021c-5.406225 3.710705-11.951309 5.882644-19.003999 5.882644v.000012c-18.56941 0-33.622885-15.052944-33.622885-33.621703s15.053475-33.621691 33.622885-33.621691c7.052684 0 13.597769 2.171939 19.003999 5.882644.219125.150397.516886-.003284.516886-.269069v-6.005703c0-.118752-.063723-.228851-.167102-.287296-5.715722-3.231993-12.31907-5.077421-19.353783-5.077421-21.748164 0-39.378536 17.630369-39.378536 39.378535s17.630371 39.378534 39.378536 39.378534c7.034713 0 13.638055-1.845437 19.353783-5.077409.103378-.058454.167102-.168556.167102-.287318v-6.005692c0-.265783-.297761-.419474-.516886-.269067z"/></g></svg>