<?xml version="1.0" encoding="utf-8"?>
<!-- Generator: Adobe Illustrator 26.0.1, SVG Export Plug-In . SVG Version: 6.00 Build 0)  -->
<svg version="1.1" id="Layer_1" xmlns="http://www.w3.org/2000/svg" xmlns:xlink="http://www.w3.org/1999/xlink" x="0px" y="0px"
	 viewBox="0 0 100 100" style="enable-background:new 0 0 100 100;" xml:space="preserve">
<style type="text/css">
	.st0{fill:#0097A7;}
	.st1{fill-rule:evenodd;clip-rule:evenodd;fill-opacity:0;}
</style>
<g>
	<g>
		<g>
			<path class="st0" d="M77.17,80.72c-6.45,4.85-14.46,7.74-23.14,7.74c-21.22,0-38.5-17.28-38.5-38.54s17.28-38.54,38.5-38.54
				c8.44,0,16.49,2.7,23.14,7.74v-7.5c-6.92-4.18-14.85-6.41-23.14-6.41C29.33,5.21,9.28,25.3,9.28,50s20.09,44.79,44.75,44.79
				c8.48,0,16.38-2.35,23.14-6.45V80.72z"/>
		</g>
	</g>
	<path class="st1" d="M39.34,7.01h33.5v73.91h-33.5V7.01z"/>
	<path class="st0" d="M41.13,73.52V26.48h10.02v38.23h19.89v8.81H41.13z"/>
</g>
</svg>
