<svg width="488" height="402" viewBox="0 0 488 402" fill="none" xmlns="http://www.w3.org/2000/svg">
<g filter="url(#filter0_dd_14_3656)">
<g clip-path="url(#clip0_14_3656)">
<rect x="10" y="8" width="468" height="382" rx="10" fill="#181922"/>
<path d="M26 38.252H27.1543L27.9922 45.3535L28.9883 40.6543H30.2246L31.2324 45.3652L32.0703 38.252H33.2246L31.918 47H30.7988L29.6094 41.8027L28.4258 47H27.3066L26 38.252ZM39.66 42.9336V47H38.576V42.9336C38.576 42.3438 38.4725 41.9102 38.2655 41.6328C38.0584 41.3555 37.7342 41.2168 37.2928 41.2168C36.7889 41.2168 36.4002 41.3965 36.1268 41.7559C35.8573 42.1113 35.7225 42.623 35.7225 43.291V47H34.6444V37.8828H35.7225V41.4219C35.9139 41.0469 36.1737 40.7637 36.5018 40.5723C36.8299 40.377 37.2186 40.2793 37.6678 40.2793C38.3358 40.2793 38.8338 40.5 39.1619 40.9414C39.494 41.3789 39.66 42.043 39.66 42.9336ZM45.1169 43.7012H44.7594C44.1305 43.7012 43.6559 43.8125 43.3356 44.0352C43.0192 44.2539 42.861 44.582 42.861 45.0195C42.861 45.4141 42.9801 45.7207 43.2184 45.9395C43.4567 46.1582 43.7868 46.2676 44.2087 46.2676C44.8024 46.2676 45.2692 46.0625 45.609 45.6523C45.9489 45.2383 46.1208 44.668 46.1247 43.9414V43.7012H45.1169ZM47.2087 43.2559V47H46.1247V46.0273C45.8942 46.418 45.6032 46.707 45.2516 46.8945C44.904 47.0781 44.4801 47.1699 43.9801 47.1699C43.3122 47.1699 42.779 46.9824 42.3805 46.6074C41.9821 46.2285 41.7829 45.7227 41.7829 45.0898C41.7829 44.3594 42.027 43.8047 42.5153 43.4258C43.0075 43.0469 43.7282 42.8574 44.6774 42.8574H46.1247V42.6875C46.1208 42.1641 45.988 41.7852 45.7262 41.5508C45.4645 41.3125 45.0465 41.1934 44.4723 41.1934C44.1051 41.1934 43.734 41.2461 43.359 41.3516C42.984 41.457 42.6188 41.6113 42.2633 41.8145V40.7363C42.6618 40.584 43.0426 40.4707 43.4059 40.3965C43.7731 40.3184 44.1286 40.2793 44.4723 40.2793C45.0153 40.2793 45.4782 40.3594 45.861 40.5195C46.2477 40.6797 46.5602 40.9199 46.7985 41.2402C46.9469 41.4355 47.0524 41.6777 47.1149 41.9668C47.1774 42.252 47.2087 42.6816 47.2087 43.2559ZM52.103 38.5742V40.4375H54.5522V41.2754H52.103V44.8379C52.103 45.3223 52.1948 45.6602 52.3784 45.8516C52.562 46.043 52.8823 46.1387 53.3394 46.1387H54.5522V47H53.2339C52.4253 47 51.855 46.8379 51.5229 46.5137C51.1909 46.1895 51.0249 45.6309 51.0249 44.8379V41.2754H49.2729V40.4375H51.0249V38.5742H52.103ZM65.3605 40.4609H68.1203V46.1621H70.2589V47H64.9035V46.1621H67.0421V41.2988H65.3605V40.4609ZM67.0421 37.9121H68.1203V39.2715H67.0421V37.9121ZM76.7119 40.666V41.7207C76.4033 41.541 76.0928 41.4062 75.7803 41.3164C75.4678 41.2266 75.1494 41.1816 74.8252 41.1816C74.3369 41.1816 73.9717 41.2617 73.7295 41.4219C73.4912 41.5781 73.3721 41.8184 73.3721 42.1426C73.3721 42.4355 73.4619 42.6543 73.6416 42.7988C73.8213 42.9434 74.2685 43.084 74.9834 43.2207L75.417 43.3027C75.9521 43.4043 76.3564 43.6074 76.6299 43.9121C76.9072 44.2168 77.0459 44.6133 77.0459 45.1016C77.0459 45.75 76.8154 46.2578 76.3545 46.625C75.8935 46.9883 75.2529 47.1699 74.4326 47.1699C74.1084 47.1699 73.7685 47.1348 73.4131 47.0645C73.0576 46.998 72.6728 46.8965 72.2588 46.7598V45.6465C72.6611 45.8535 73.0459 46.0098 73.4131 46.1152C73.7803 46.2168 74.1279 46.2676 74.456 46.2676C74.9326 46.2676 75.3018 46.1719 75.5635 45.9805C75.8252 45.7852 75.956 45.5137 75.956 45.166C75.956 44.666 75.4775 44.3203 74.5205 44.1289L74.4736 44.1172L74.0693 44.0352C73.4482 43.9141 72.9951 43.7109 72.71 43.4258C72.4248 43.1367 72.2822 42.7441 72.2822 42.248C72.2822 41.6191 72.4951 41.1348 72.9209 40.7949C73.3467 40.4512 73.9541 40.2793 74.7432 40.2793C75.0947 40.2793 75.4326 40.3125 75.7568 40.3789C76.081 40.4414 76.3994 40.5371 76.7119 40.666ZM87.5963 46.0098H89.4362V39.4004L87.2331 40.4609V39.3242L89.4245 38.2812H90.6081V46.0098H92.4245V47H87.5963V46.0098ZM97.1255 38.123C98.0591 38.123 98.7641 38.5039 99.2407 39.2656C99.7212 40.0273 99.9614 41.1543 99.9614 42.6465C99.9614 44.1387 99.7212 45.2656 99.2407 46.0273C98.7641 46.7891 98.0591 47.1699 97.1255 47.1699C96.1919 47.1699 95.4868 46.7891 95.0102 46.0273C94.5337 45.2656 94.2954 44.1387 94.2954 42.6465C94.2954 41.1543 94.5337 40.0273 95.0102 39.2656C95.4868 38.5039 96.1919 38.123 97.1255 38.123ZM97.1255 46.2324C97.6802 46.2324 98.0923 45.9375 98.3618 45.3477C98.6352 44.7578 98.772 43.8574 98.772 42.6465C98.772 42.002 98.7329 41.4199 98.6548 40.9004L95.8657 45.2656C96.1587 45.9102 96.5786 46.2324 97.1255 46.2324ZM97.1255 39.0605C96.5747 39.0605 96.1626 39.3555 95.8891 39.9453C95.6196 40.5352 95.4848 41.4355 95.4848 42.6465C95.4848 43.1973 95.522 43.7129 95.5962 44.1934L98.3266 39.8398C98.0298 39.3203 97.6294 39.0605 97.1255 39.0605ZM104.627 38.123C105.561 38.123 106.266 38.5039 106.743 39.2656C107.223 40.0273 107.463 41.1543 107.463 42.6465C107.463 44.1387 107.223 45.2656 106.743 46.0273C106.266 46.7891 105.561 47.1699 104.627 47.1699C103.694 47.1699 102.989 46.7891 102.512 46.0273C102.035 45.2656 101.797 44.1387 101.797 42.6465C101.797 41.1543 102.035 40.0273 102.512 39.2656C102.989 38.5039 103.694 38.123 104.627 38.123ZM104.627 46.2324C105.182 46.2324 105.594 45.9375 105.864 45.3477C106.137 44.7578 106.274 43.8574 106.274 42.6465C106.274 42.002 106.235 41.4199 106.157 40.9004L103.368 45.2656C103.66 45.9102 104.08 46.2324 104.627 46.2324ZM104.627 39.0605C104.076 39.0605 103.664 39.3555 103.391 39.9453C103.121 40.5352 102.987 41.4355 102.987 42.6465C102.987 43.1973 103.024 43.7129 103.098 44.1934L105.828 39.8398C105.532 39.3203 105.131 39.0605 104.627 39.0605ZM120.24 40.0977V42.6934H122.848V43.6836H120.24V46.2793H119.256V43.6836H116.654V42.6934H119.256V40.0977H120.24ZM135.572 42.3184C136.146 42.4707 136.586 42.7422 136.89 43.1328C137.195 43.5195 137.347 44.0039 137.347 44.5859C137.347 45.3906 137.076 46.0234 136.533 46.4844C135.994 46.9414 135.246 47.1699 134.289 47.1699C133.886 47.1699 133.476 47.1328 133.058 47.0586C132.64 46.9844 132.23 46.877 131.828 46.7363V45.5586C132.226 45.7656 132.619 45.9199 133.006 46.0215C133.392 46.123 133.777 46.1738 134.16 46.1738C134.808 46.1738 135.306 46.0273 135.654 45.7344C136.002 45.4414 136.175 45.0195 136.175 44.4688C136.175 43.9609 136.002 43.5586 135.654 43.2617C135.306 42.9609 134.836 42.8105 134.242 42.8105H133.34V41.8379H134.242C134.785 41.8379 135.209 41.7188 135.513 41.4805C135.818 41.2422 135.97 40.9102 135.97 40.4844C135.97 40.0352 135.828 39.6914 135.543 39.4531C135.261 39.2109 134.859 39.0898 134.336 39.0898C133.988 39.0898 133.629 39.1289 133.257 39.207C132.886 39.2852 132.498 39.4023 132.091 39.5586V38.4688C132.564 38.3438 132.984 38.25 133.351 38.1875C133.722 38.125 134.05 38.0938 134.336 38.0938C135.187 38.0938 135.867 38.3086 136.375 38.7383C136.886 39.1641 137.142 39.7305 137.142 40.4375C137.142 40.918 137.007 41.3184 136.738 41.6387C136.472 41.959 136.084 42.1855 135.572 42.3184ZM142.136 38.123C143.07 38.123 143.775 38.5039 144.251 39.2656C144.732 40.0273 144.972 41.1543 144.972 42.6465C144.972 44.1387 144.732 45.2656 144.251 46.0273C143.775 46.7891 143.07 47.1699 142.136 47.1699C141.203 47.1699 140.498 46.7891 140.021 46.0273C139.544 45.2656 139.306 44.1387 139.306 42.6465C139.306 41.1543 139.544 40.0273 140.021 39.2656C140.498 38.5039 141.203 38.123 142.136 38.123ZM142.136 46.2324C142.691 46.2324 143.103 45.9375 143.373 45.3477C143.646 44.7578 143.783 43.8574 143.783 42.6465C143.783 42.002 143.744 41.4199 143.666 40.9004L140.876 45.2656C141.169 45.9102 141.589 46.2324 142.136 46.2324ZM142.136 39.0605C141.585 39.0605 141.173 39.3555 140.9 39.9453C140.63 40.5352 140.496 41.4355 140.496 42.6465C140.496 43.1973 140.533 43.7129 140.607 44.1934L143.337 39.8398C143.041 39.3203 142.64 39.0605 142.136 39.0605ZM149.638 38.123C150.572 38.123 151.277 38.5039 151.753 39.2656C152.234 40.0273 152.474 41.1543 152.474 42.6465C152.474 44.1387 152.234 45.2656 151.753 46.0273C151.277 46.7891 150.572 47.1699 149.638 47.1699C148.704 47.1699 147.999 46.7891 147.523 46.0273C147.046 45.2656 146.808 44.1387 146.808 42.6465C146.808 41.1543 147.046 40.0273 147.523 39.2656C147.999 38.5039 148.704 38.123 149.638 38.123ZM149.638 46.2324C150.193 46.2324 150.605 45.9375 150.874 45.3477C151.148 44.7578 151.284 43.8574 151.284 42.6465C151.284 42.002 151.245 41.4199 151.167 40.9004L148.378 45.2656C148.671 45.9102 149.091 46.2324 149.638 46.2324ZM149.638 39.0605C149.087 39.0605 148.675 39.3555 148.402 39.9453C148.132 40.5352 147.997 41.4355 147.997 42.6465C147.997 43.1973 148.034 43.7129 148.109 44.1934L150.839 39.8398C150.542 39.3203 150.142 39.0605 149.638 39.0605ZM157.538 44.6504H156.425V43.748C156.425 43.3652 156.484 43.041 156.601 42.7754C156.722 42.5059 156.946 42.2109 157.275 41.8906L157.802 41.3691C158.044 41.1387 158.21 40.9375 158.3 40.7656C158.394 40.5938 158.441 40.4121 158.441 40.2207C158.441 39.873 158.312 39.5918 158.054 39.377C157.8 39.1621 157.46 39.0547 157.034 39.0547C156.73 39.0547 156.403 39.123 156.056 39.2598C155.708 39.3926 155.343 39.5918 154.96 39.8574V38.7559C155.327 38.5332 155.696 38.3672 156.068 38.2578C156.443 38.1484 156.833 38.0938 157.239 38.0938C157.966 38.0938 158.544 38.2812 158.974 38.6562C159.407 39.0312 159.624 39.5332 159.624 40.1621C159.624 40.459 159.558 40.7363 159.425 40.9941C159.296 41.248 159.048 41.5547 158.681 41.9141L158.165 42.418C157.896 42.6758 157.724 42.8867 157.65 43.0508C157.575 43.2148 157.538 43.416 157.538 43.6543V43.9297V44.6504ZM156.384 45.5117H157.573V47H156.384V45.5117ZM30.3066 104.33L27.5469 108.953H30.3066V104.33ZM30.1133 103.252H31.4844V108.953H32.6504V109.914H31.4844V112H30.3066V109.914H26.5977V108.795L30.1133 103.252ZM37.1112 103.123C38.0448 103.123 38.7498 103.504 39.2264 104.266C39.7069 105.027 39.9471 106.154 39.9471 107.646C39.9471 109.139 39.7069 110.266 39.2264 111.027C38.7498 111.789 38.0448 112.17 37.1112 112.17C36.1776 112.17 35.4725 111.789 34.9959 111.027C34.5194 110.266 34.2811 109.139 34.2811 107.646C34.2811 106.154 34.5194 105.027 34.9959 104.266C35.4725 103.504 36.1776 103.123 37.1112 103.123ZM37.1112 111.232C37.6659 111.232 38.078 110.938 38.3475 110.348C38.6209 109.758 38.7576 108.857 38.7576 107.646C38.7576 107.002 38.7186 106.42 38.6405 105.9L35.8514 110.266C36.1444 110.91 36.5643 111.232 37.1112 111.232ZM37.1112 104.061C36.5604 104.061 36.1483 104.355 35.8748 104.945C35.6053 105.535 35.4705 106.436 35.4705 107.646C35.4705 108.197 35.5076 108.713 35.5819 109.193L38.3123 104.84C38.0155 104.32 37.6151 104.061 37.1112 104.061ZM44.613 103.123C45.5465 103.123 46.2516 103.504 46.7282 104.266C47.2087 105.027 47.4489 106.154 47.4489 107.646C47.4489 109.139 47.2087 110.266 46.7282 111.027C46.2516 111.789 45.5465 112.17 44.613 112.17C43.6794 112.17 42.9743 111.789 42.4977 111.027C42.0212 110.266 41.7829 109.139 41.7829 107.646C41.7829 106.154 42.0212 105.027 42.4977 104.266C42.9743 103.504 43.6794 103.123 44.613 103.123ZM44.613 111.232C45.1676 111.232 45.5798 110.938 45.8493 110.348C46.1227 109.758 46.2594 108.857 46.2594 107.646C46.2594 107.002 46.2204 106.42 46.1423 105.9L43.3532 110.266C43.6462 110.91 44.0661 111.232 44.613 111.232ZM44.613 104.061C44.0622 104.061 43.6501 104.355 43.3766 104.945C43.1071 105.535 42.9723 106.436 42.9723 107.646C42.9723 108.197 43.0094 108.713 43.0837 109.193L45.8141 104.84C45.5173 104.32 45.1169 104.061 44.613 104.061ZM26 168.252H27.1543L27.9922 175.354L28.9883 170.654H30.2246L31.2324 175.365L32.0703 168.252H33.2246L31.918 177H30.7988L29.6094 171.803L28.4258 177H27.3066L26 168.252ZM39.66 172.934V177H38.576V172.934C38.576 172.344 38.4725 171.91 38.2655 171.633C38.0584 171.355 37.7342 171.217 37.2928 171.217C36.7889 171.217 36.4002 171.396 36.1268 171.756C35.8573 172.111 35.7225 172.623 35.7225 173.291V177H34.6444V167.883H35.7225V171.422C35.9139 171.047 36.1737 170.764 36.5018 170.572C36.8299 170.377 37.2186 170.279 37.6678 170.279C38.3358 170.279 38.8338 170.5 39.1619 170.941C39.494 171.379 39.66 172.043 39.66 172.934ZM45.1169 173.701H44.7594C44.1305 173.701 43.6559 173.812 43.3356 174.035C43.0192 174.254 42.861 174.582 42.861 175.02C42.861 175.414 42.9801 175.721 43.2184 175.939C43.4567 176.158 43.7868 176.268 44.2087 176.268C44.8024 176.268 45.2692 176.062 45.609 175.652C45.9489 175.238 46.1208 174.668 46.1247 173.941V173.701H45.1169ZM47.2087 173.256V177H46.1247V176.027C45.8942 176.418 45.6032 176.707 45.2516 176.895C44.904 177.078 44.4801 177.17 43.9801 177.17C43.3122 177.17 42.779 176.982 42.3805 176.607C41.9821 176.229 41.7829 175.723 41.7829 175.09C41.7829 174.359 42.027 173.805 42.5153 173.426C43.0075 173.047 43.7282 172.857 44.6774 172.857H46.1247V172.688C46.1208 172.164 45.988 171.785 45.7262 171.551C45.4645 171.312 45.0465 171.193 44.4723 171.193C44.1051 171.193 43.734 171.246 43.359 171.352C42.984 171.457 42.6188 171.611 42.2633 171.814V170.736C42.6618 170.584 43.0426 170.471 43.4059 170.396C43.7731 170.318 44.1286 170.279 44.4723 170.279C45.0153 170.279 45.4782 170.359 45.861 170.52C46.2477 170.68 46.5602 170.92 46.7985 171.24C46.9469 171.436 47.0524 171.678 47.1149 171.967C47.1774 172.252 47.2087 172.682 47.2087 173.256ZM52.103 168.574V170.438H54.5522V171.275H52.103V174.838C52.103 175.322 52.1948 175.66 52.3784 175.852C52.562 176.043 52.8823 176.139 53.3394 176.139H54.5522V177H53.2339C52.4253 177 51.855 176.838 51.5229 176.514C51.1909 176.189 51.0249 175.631 51.0249 174.838V171.275H49.2729V170.438H51.0249V168.574H52.103ZM65.3605 170.461H68.1203V176.162H70.2589V177H64.9035V176.162H67.0421V171.299H65.3605V170.461ZM67.0421 167.912H68.1203V169.271H67.0421V167.912ZM76.7119 170.666V171.721C76.4033 171.541 76.0928 171.406 75.7803 171.316C75.4678 171.227 75.1494 171.182 74.8252 171.182C74.3369 171.182 73.9717 171.262 73.7295 171.422C73.4912 171.578 73.3721 171.818 73.3721 172.143C73.3721 172.436 73.4619 172.654 73.6416 172.799C73.8213 172.943 74.2685 173.084 74.9834 173.221L75.417 173.303C75.9521 173.404 76.3564 173.607 76.6299 173.912C76.9072 174.217 77.0459 174.613 77.0459 175.102C77.0459 175.75 76.8154 176.258 76.3545 176.625C75.8935 176.988 75.2529 177.17 74.4326 177.17C74.1084 177.17 73.7685 177.135 73.4131 177.064C73.0576 176.998 72.6728 176.896 72.2588 176.76V175.646C72.6611 175.854 73.0459 176.01 73.4131 176.115C73.7803 176.217 74.1279 176.268 74.456 176.268C74.9326 176.268 75.3018 176.172 75.5635 175.98C75.8252 175.785 75.956 175.514 75.956 175.166C75.956 174.666 75.4775 174.32 74.5205 174.129L74.4736 174.117L74.0693 174.035C73.4482 173.914 72.9951 173.711 72.71 173.426C72.4248 173.137 72.2822 172.744 72.2822 172.248C72.2822 171.619 72.4951 171.135 72.9209 170.795C73.3467 170.451 73.9541 170.279 74.7432 170.279C75.0947 170.279 75.4326 170.312 75.7568 170.379C76.081 170.441 76.3994 170.537 76.7119 170.666ZM87.2272 168.252H91.6569V169.248H88.3053V171.398C88.4733 171.336 88.6413 171.291 88.8092 171.264C88.9811 171.232 89.153 171.217 89.3249 171.217C90.2311 171.217 90.9499 171.484 91.4811 172.02C92.0124 172.555 92.278 173.279 92.278 174.193C92.278 175.115 91.9987 175.842 91.4401 176.373C90.8854 176.904 90.1256 177.17 89.1608 177.17C88.696 177.17 88.2702 177.139 87.8835 177.076C87.5006 177.014 87.1569 176.92 86.8522 176.795V175.594C87.2116 175.789 87.5729 175.936 87.9362 176.033C88.2995 176.127 88.6706 176.174 89.0495 176.174C89.7018 176.174 90.2038 176.002 90.5553 175.658C90.9108 175.314 91.0885 174.826 91.0885 174.193C91.0885 173.568 90.9049 173.082 90.5378 172.734C90.1745 172.387 89.6667 172.213 89.0143 172.213C88.6979 172.213 88.3893 172.25 88.0885 172.324C87.7878 172.395 87.5006 172.502 87.2272 172.646V168.252ZM94.3306 168.252H99.8384V168.756L96.7095 177H95.4731L98.52 169.248H94.3306V168.252ZM104.627 172.846C104.1 172.846 103.692 172.994 103.403 173.291C103.118 173.584 102.975 174 102.975 174.539C102.975 175.078 103.119 175.498 103.409 175.799C103.701 176.096 104.108 176.244 104.627 176.244C105.159 176.244 105.567 176.098 105.852 175.805C106.141 175.508 106.285 175.086 106.285 174.539C106.285 174.004 106.139 173.588 105.846 173.291C105.557 172.994 105.151 172.846 104.627 172.846ZM103.596 172.354C103.092 172.225 102.698 171.984 102.412 171.633C102.131 171.281 101.991 170.857 101.991 170.361C101.991 169.666 102.227 169.115 102.7 168.709C103.172 168.299 103.815 168.094 104.627 168.094C105.444 168.094 106.088 168.299 106.561 168.709C107.034 169.115 107.27 169.666 107.27 170.361C107.27 170.857 107.127 171.281 106.842 171.633C106.561 171.984 106.168 172.225 105.664 172.354C106.25 172.482 106.698 172.742 107.006 173.133C107.319 173.523 107.475 174.029 107.475 174.65C107.475 175.439 107.223 176.057 106.719 176.502C106.215 176.947 105.518 177.17 104.627 177.17C103.737 177.17 103.039 176.949 102.535 176.508C102.035 176.062 101.785 175.447 101.785 174.662C101.785 174.037 101.94 173.529 102.248 173.139C102.561 172.744 103.01 172.482 103.596 172.354ZM103.168 170.473C103.168 170.941 103.293 171.299 103.543 171.545C103.793 171.791 104.155 171.914 104.627 171.914C105.104 171.914 105.467 171.791 105.717 171.545C105.967 171.299 106.092 170.941 106.092 170.473C106.092 169.996 105.967 169.633 105.717 169.383C105.471 169.133 105.108 169.008 104.627 169.008C104.155 169.008 103.793 169.135 103.543 169.389C103.293 169.639 103.168 170 103.168 170.473ZM113.067 172.318C113.641 172.471 114.08 172.742 114.385 173.133C114.69 173.52 114.842 174.004 114.842 174.586C114.842 175.391 114.57 176.023 114.027 176.484C113.488 176.941 112.74 177.17 111.783 177.17C111.381 177.17 110.971 177.133 110.553 177.059C110.135 176.984 109.725 176.877 109.322 176.736V175.559C109.721 175.766 110.113 175.92 110.5 176.021C110.887 176.123 111.272 176.174 111.654 176.174C112.303 176.174 112.801 176.027 113.149 175.734C113.496 175.441 113.67 175.02 113.67 174.469C113.67 173.961 113.496 173.559 113.149 173.262C112.801 172.961 112.33 172.811 111.736 172.811H110.834V171.838H111.736C112.279 171.838 112.703 171.719 113.008 171.48C113.313 171.242 113.465 170.91 113.465 170.484C113.465 170.035 113.322 169.691 113.037 169.453C112.756 169.211 112.354 169.09 111.83 169.09C111.483 169.09 111.123 169.129 110.752 169.207C110.381 169.285 109.992 169.402 109.586 169.559V168.469C110.059 168.344 110.479 168.25 110.846 168.188C111.217 168.125 111.545 168.094 111.83 168.094C112.682 168.094 113.361 168.309 113.869 168.738C114.381 169.164 114.637 169.73 114.637 170.438C114.637 170.918 114.502 171.318 114.233 171.639C113.967 171.959 113.578 172.186 113.067 172.318ZM120.328 169.33L117.568 173.953H120.328V169.33ZM120.135 168.252H121.506V173.953H122.672V174.914H121.506V177H120.328V174.914H116.619V173.795L120.135 168.252ZM127.133 172.846C126.605 172.846 126.197 172.994 125.908 173.291C125.623 173.584 125.48 174 125.48 174.539C125.48 175.078 125.625 175.498 125.914 175.799C126.207 176.096 126.613 176.244 127.133 176.244C127.664 176.244 128.072 176.098 128.357 175.805C128.646 175.508 128.791 175.086 128.791 174.539C128.791 174.004 128.644 173.588 128.351 173.291C128.062 172.994 127.656 172.846 127.133 172.846ZM126.101 172.354C125.597 172.225 125.203 171.984 124.918 171.633C124.637 171.281 124.496 170.857 124.496 170.361C124.496 169.666 124.732 169.115 125.205 168.709C125.678 168.299 126.32 168.094 127.133 168.094C127.949 168.094 128.594 168.299 129.066 168.709C129.539 169.115 129.775 169.666 129.775 170.361C129.775 170.857 129.633 171.281 129.347 171.633C129.066 171.984 128.674 172.225 128.17 172.354C128.756 172.482 129.203 172.742 129.512 173.133C129.824 173.523 129.98 174.029 129.98 174.65C129.98 175.439 129.728 176.057 129.224 176.502C128.721 176.947 128.023 177.17 127.133 177.17C126.242 177.17 125.545 176.949 125.041 176.508C124.541 176.062 124.291 175.447 124.291 174.662C124.291 174.037 124.445 173.529 124.754 173.139C125.066 172.744 125.515 172.482 126.101 172.354ZM125.674 170.473C125.674 170.941 125.799 171.299 126.049 171.545C126.299 171.791 126.66 171.914 127.133 171.914C127.609 171.914 127.972 171.791 128.222 171.545C128.472 171.299 128.597 170.941 128.597 170.473C128.597 169.996 128.472 169.633 128.222 169.383C127.976 169.133 127.613 169.008 127.133 169.008C126.66 169.008 126.299 169.135 126.049 169.389C125.799 169.639 125.674 170 125.674 170.473ZM135.332 169.33L132.572 173.953H135.332V169.33ZM135.138 168.252H136.509V173.953H137.675V174.914H136.509V177H135.332V174.914H131.623V173.795L135.138 168.252ZM142.019 173.121C142.523 173.121 142.917 172.939 143.203 172.576C143.492 172.213 143.636 171.711 143.636 171.07C143.636 170.43 143.492 169.928 143.203 169.564C142.917 169.201 142.523 169.02 142.019 169.02C141.496 169.02 141.101 169.193 140.835 169.541C140.57 169.885 140.437 170.395 140.437 171.07C140.437 171.75 140.568 172.262 140.83 172.605C141.095 172.949 141.492 173.121 142.019 173.121ZM139.91 176.818V175.729C140.156 175.873 140.417 175.984 140.695 176.062C140.972 176.137 141.261 176.174 141.562 176.174C142.312 176.174 142.878 175.893 143.261 175.33C143.648 174.764 143.841 173.932 143.841 172.834C143.658 173.225 143.4 173.525 143.068 173.736C142.736 173.943 142.355 174.047 141.925 174.047C141.082 174.047 140.427 173.787 139.962 173.268C139.501 172.748 139.271 172.012 139.271 171.059C139.271 170.117 139.507 169.389 139.98 168.873C140.457 168.354 141.128 168.094 141.996 168.094C143.011 168.094 143.755 168.459 144.228 169.189C144.701 169.92 144.937 171.068 144.937 172.635C144.937 174.107 144.652 175.232 144.082 176.01C143.515 176.783 142.691 177.17 141.609 177.17C141.324 177.17 141.037 177.139 140.748 177.076C140.458 177.018 140.179 176.932 139.91 176.818ZM157.749 170.098V172.693H160.357V173.684H157.749V176.279H156.765V173.684H154.163V172.693H156.765V170.098H157.749ZM173.081 172.318C173.655 172.471 174.095 172.742 174.399 173.133C174.704 173.52 174.856 174.004 174.856 174.586C174.856 175.391 174.585 176.023 174.042 176.484C173.503 176.941 172.755 177.17 171.798 177.17C171.395 177.17 170.985 177.133 170.567 177.059C170.149 176.984 169.739 176.877 169.337 176.736V175.559C169.735 175.766 170.128 175.92 170.514 176.021C170.901 176.123 171.286 176.174 171.669 176.174C172.317 176.174 172.815 176.027 173.163 175.734C173.511 175.441 173.684 175.02 173.684 174.469C173.684 173.961 173.511 173.559 173.163 173.262C172.815 172.961 172.345 172.811 171.751 172.811H170.848V171.838H171.751C172.294 171.838 172.718 171.719 173.022 171.48C173.327 171.242 173.479 170.91 173.479 170.484C173.479 170.035 173.337 169.691 173.052 169.453C172.77 169.211 172.368 169.09 171.845 169.09C171.497 169.09 171.138 169.129 170.766 169.207C170.395 169.285 170.007 169.402 169.6 169.559V168.469C170.073 168.344 170.493 168.25 170.86 168.188C171.231 168.125 171.559 168.094 171.845 168.094C172.696 168.094 173.376 168.309 173.884 168.738C174.395 169.164 174.651 169.73 174.651 170.438C174.651 170.918 174.516 171.318 174.247 171.639C173.981 171.959 173.593 172.186 173.081 172.318ZM179.645 172.846C179.118 172.846 178.71 172.994 178.421 173.291C178.135 173.584 177.993 174 177.993 174.539C177.993 175.078 178.137 175.498 178.426 175.799C178.719 176.096 179.126 176.244 179.645 176.244C180.176 176.244 180.585 176.098 180.87 175.805C181.159 175.508 181.303 175.086 181.303 174.539C181.303 174.004 181.157 173.588 180.864 173.291C180.575 172.994 180.169 172.846 179.645 172.846ZM178.614 172.354C178.11 172.225 177.715 171.984 177.43 171.633C177.149 171.281 177.008 170.857 177.008 170.361C177.008 169.666 177.245 169.115 177.717 168.709C178.19 168.299 178.833 168.094 179.645 168.094C180.462 168.094 181.106 168.299 181.579 168.709C182.051 169.115 182.288 169.666 182.288 170.361C182.288 170.857 182.145 171.281 181.86 171.633C181.579 171.984 181.186 172.225 180.682 172.354C181.268 172.482 181.715 172.742 182.024 173.133C182.337 173.523 182.493 174.029 182.493 174.65C182.493 175.439 182.241 176.057 181.737 176.502C181.233 176.947 180.536 177.17 179.645 177.17C178.755 177.17 178.057 176.949 177.553 176.508C177.053 176.062 176.803 175.447 176.803 174.662C176.803 174.037 176.958 173.529 177.266 173.139C177.579 172.744 178.028 172.482 178.614 172.354ZM178.186 170.473C178.186 170.941 178.311 171.299 178.561 171.545C178.811 171.791 179.173 171.914 179.645 171.914C180.122 171.914 180.485 171.791 180.735 171.545C180.985 171.299 181.11 170.941 181.11 170.473C181.11 169.996 180.985 169.633 180.735 169.383C180.489 169.133 180.126 169.008 179.645 169.008C179.173 169.008 178.811 169.135 178.561 169.389C178.311 169.639 178.186 170 178.186 170.473ZM187.147 172.846C186.62 172.846 186.211 172.994 185.922 173.291C185.637 173.584 185.495 174 185.495 174.539C185.495 175.078 185.639 175.498 185.928 175.799C186.221 176.096 186.627 176.244 187.147 176.244C187.678 176.244 188.086 176.098 188.372 175.805C188.661 175.508 188.805 175.086 188.805 174.539C188.805 174.004 188.659 173.588 188.366 173.291C188.077 172.994 187.67 172.846 187.147 172.846ZM186.116 172.354C185.612 172.225 185.217 171.984 184.932 171.633C184.651 171.281 184.51 170.857 184.51 170.361C184.51 169.666 184.747 169.115 185.219 168.709C185.692 168.299 186.334 168.094 187.147 168.094C187.963 168.094 188.608 168.299 189.081 168.709C189.553 169.115 189.79 169.666 189.79 170.361C189.79 170.857 189.647 171.281 189.362 171.633C189.081 171.984 188.688 172.225 188.184 172.354C188.77 172.482 189.217 172.742 189.526 173.133C189.838 173.523 189.995 174.029 189.995 174.65C189.995 175.439 189.743 176.057 189.239 176.502C188.735 176.947 188.038 177.17 187.147 177.17C186.256 177.17 185.559 176.949 185.055 176.508C184.555 176.062 184.305 175.447 184.305 174.662C184.305 174.037 184.459 173.529 184.768 173.139C185.081 172.744 185.53 172.482 186.116 172.354ZM185.688 170.473C185.688 170.941 185.813 171.299 186.063 171.545C186.313 171.791 186.674 171.914 187.147 171.914C187.624 171.914 187.987 171.791 188.237 171.545C188.487 171.299 188.612 170.941 188.612 170.473C188.612 169.996 188.487 169.633 188.237 169.383C187.991 169.133 187.627 169.008 187.147 169.008C186.674 169.008 186.313 169.135 186.063 169.389C185.813 169.639 185.688 170 185.688 170.473ZM195.586 172.318C196.16 172.471 196.6 172.742 196.905 173.133C197.209 173.52 197.362 174.004 197.362 174.586C197.362 175.391 197.09 176.023 196.547 176.484C196.008 176.941 195.26 177.17 194.303 177.17C193.901 177.17 193.491 177.133 193.073 177.059C192.655 176.984 192.244 176.877 191.842 176.736V175.559C192.241 175.766 192.633 175.92 193.02 176.021C193.407 176.123 193.791 176.174 194.174 176.174C194.823 176.174 195.321 176.027 195.668 175.734C196.016 175.441 196.19 175.02 196.19 174.469C196.19 173.961 196.016 173.559 195.668 173.262C195.321 172.961 194.85 172.811 194.256 172.811H193.354V171.838H194.256C194.799 171.838 195.223 171.719 195.528 171.48C195.832 171.242 195.985 170.91 195.985 170.484C195.985 170.035 195.842 169.691 195.557 169.453C195.276 169.211 194.873 169.09 194.35 169.09C194.002 169.09 193.643 169.129 193.272 169.207C192.901 169.285 192.512 169.402 192.106 169.559V168.469C192.578 168.344 192.998 168.25 193.366 168.188C193.737 168.125 194.065 168.094 194.35 168.094C195.201 168.094 195.881 168.309 196.389 168.738C196.901 169.164 197.157 169.73 197.157 170.438C197.157 170.918 197.022 171.318 196.752 171.639C196.487 171.959 196.098 172.186 195.586 172.318ZM203.088 172.318C203.662 172.471 204.102 172.742 204.406 173.133C204.711 173.52 204.863 174.004 204.863 174.586C204.863 175.391 204.592 176.023 204.049 176.484C203.51 176.941 202.762 177.17 201.805 177.17C201.402 177.17 200.992 177.133 200.574 177.059C200.156 176.984 199.746 176.877 199.344 176.736V175.559C199.742 175.766 200.135 175.92 200.522 176.021C200.908 176.123 201.293 176.174 201.676 176.174C202.324 176.174 202.822 176.027 203.17 175.734C203.518 175.441 203.692 175.02 203.692 174.469C203.692 173.961 203.518 173.559 203.17 173.262C202.822 172.961 202.352 172.811 201.758 172.811H200.856V171.838H201.758C202.301 171.838 202.725 171.719 203.029 171.48C203.334 171.242 203.486 170.91 203.486 170.484C203.486 170.035 203.344 169.691 203.059 169.453C202.777 169.211 202.375 169.09 201.852 169.09C201.504 169.09 201.145 169.129 200.774 169.207C200.402 169.285 200.014 169.402 199.608 169.559V168.469C200.08 168.344 200.5 168.25 200.867 168.188C201.238 168.125 201.567 168.094 201.852 168.094C202.703 168.094 203.383 168.309 203.891 168.738C204.402 169.164 204.658 169.73 204.658 170.438C204.658 170.918 204.524 171.318 204.254 171.639C203.988 171.959 203.6 172.186 203.088 172.318ZM206.857 168.252H212.365V168.756L209.236 177H208L211.047 169.248H206.857V168.252ZM217.851 169.33L215.092 173.953H217.851V169.33ZM217.658 168.252H219.029V173.953H220.195V174.914H219.029V177H217.851V174.914H214.142V173.795L217.658 168.252ZM221.861 168.252H227.369V168.756L224.24 177H223.004L226.05 169.248H221.861V168.252ZM232.556 174.65H231.443V173.748C231.443 173.365 231.501 173.041 231.619 172.775C231.74 172.506 231.964 172.211 232.292 171.891L232.82 171.369C233.062 171.139 233.228 170.938 233.318 170.766C233.412 170.594 233.458 170.412 233.458 170.221C233.458 169.873 233.33 169.592 233.072 169.377C232.818 169.162 232.478 169.055 232.052 169.055C231.748 169.055 231.421 169.123 231.074 169.26C230.726 169.393 230.361 169.592 229.978 169.857V168.756C230.345 168.533 230.714 168.367 231.085 168.258C231.46 168.148 231.851 168.094 232.257 168.094C232.984 168.094 233.562 168.281 233.992 168.656C234.425 169.031 234.642 169.533 234.642 170.162C234.642 170.459 234.576 170.736 234.443 170.994C234.314 171.248 234.066 171.555 233.699 171.914L233.183 172.418C232.914 172.676 232.742 172.887 232.667 173.051C232.593 173.215 232.556 173.416 232.556 173.654V173.93V174.65ZM231.402 175.512H232.591V177H231.402V175.512ZM29.4922 237.121C29.9961 237.121 30.3906 236.939 30.6758 236.576C30.9648 236.213 31.1094 235.711 31.1094 235.07C31.1094 234.43 30.9648 233.928 30.6758 233.564C30.3906 233.201 29.9961 233.02 29.4922 233.02C28.9688 233.02 28.5742 233.193 28.3086 233.541C28.043 233.885 27.9102 234.395 27.9102 235.07C27.9102 235.75 28.041 236.262 28.3027 236.605C28.5684 236.949 28.9648 237.121 29.4922 237.121ZM27.3828 240.818V239.729C27.6289 239.873 27.8906 239.984 28.168 240.062C28.4453 240.137 28.7344 240.174 29.0352 240.174C29.7852 240.174 30.3516 239.893 30.7344 239.33C31.1211 238.764 31.3145 237.932 31.3145 236.834C31.1309 237.225 30.873 237.525 30.541 237.736C30.209 237.943 29.8281 238.047 29.3984 238.047C28.5547 238.047 27.9004 237.787 27.4355 237.268C26.9746 236.748 26.7441 236.012 26.7441 235.059C26.7441 234.117 26.9805 233.389 27.4531 232.873C27.9297 232.354 28.6016 232.094 29.4688 232.094C30.4844 232.094 31.2285 232.459 31.7012 233.189C32.1738 233.92 32.4102 235.068 32.4102 236.635C32.4102 238.107 32.125 239.232 31.5547 240.01C30.9883 240.783 30.1641 241.17 29.082 241.17C28.7969 241.17 28.5098 241.139 28.2207 241.076C27.9316 241.018 27.6523 240.932 27.3828 240.818ZM39.3084 232.445V233.535C39.0623 233.391 38.8006 233.281 38.5233 233.207C38.2459 233.129 37.9569 233.09 37.6561 233.09C36.9061 233.09 36.3377 233.373 35.951 233.939C35.5643 234.502 35.3709 235.332 35.3709 236.43C35.5584 236.039 35.8182 235.74 36.1502 235.533C36.4823 235.322 36.8631 235.217 37.2928 235.217C38.1366 235.217 38.7889 235.477 39.2498 235.996C39.7147 236.512 39.9471 237.244 39.9471 238.193C39.9471 239.139 39.7088 239.871 39.2323 240.391C38.7557 240.91 38.0858 241.17 37.2225 241.17C36.2069 241.17 35.4627 240.807 34.9901 240.08C34.5174 239.35 34.2811 238.201 34.2811 236.635C34.2811 235.158 34.5643 234.033 35.1307 233.26C35.701 232.482 36.5252 232.094 37.6034 232.094C37.8924 232.094 38.1815 232.125 38.4705 232.188C38.7596 232.246 39.0389 232.332 39.3084 232.445ZM37.1991 236.143C36.6951 236.143 36.2987 236.324 36.0096 236.688C35.7205 237.051 35.576 237.553 35.576 238.193C35.576 238.834 35.7205 239.336 36.0096 239.699C36.2987 240.062 36.6951 240.244 37.1991 240.244C37.7225 240.244 38.117 240.072 38.3826 239.729C38.6483 239.381 38.7811 238.869 38.7811 238.193C38.7811 237.514 38.6483 237.002 38.3826 236.658C38.117 236.314 37.7225 236.143 37.1991 236.143ZM46.8102 232.445V233.535C46.5641 233.391 46.3024 233.281 46.0251 233.207C45.7477 233.129 45.4587 233.09 45.1579 233.09C44.4079 233.09 43.8395 233.373 43.4528 233.939C43.0661 234.502 42.8727 235.332 42.8727 236.43C43.0602 236.039 43.32 235.74 43.652 235.533C43.984 235.322 44.3649 235.217 44.7946 235.217C45.6383 235.217 46.2907 235.477 46.7516 235.996C47.2165 236.512 47.4489 237.244 47.4489 238.193C47.4489 239.139 47.2106 239.871 46.734 240.391C46.2575 240.91 45.5876 241.17 44.7243 241.17C43.7087 241.17 42.9645 240.807 42.4919 240.08C42.0192 239.35 41.7829 238.201 41.7829 236.635C41.7829 235.158 42.0661 234.033 42.6325 233.26C43.2028 232.482 44.027 232.094 45.1051 232.094C45.3942 232.094 45.6833 232.125 45.9723 232.188C46.2614 232.246 46.5407 232.332 46.8102 232.445ZM44.7008 236.143C44.1969 236.143 43.8005 236.324 43.5114 236.688C43.2223 237.051 43.0778 237.553 43.0778 238.193C43.0778 238.834 43.2223 239.336 43.5114 239.699C43.8005 240.062 44.1969 240.244 44.7008 240.244C45.2243 240.244 45.6188 240.072 45.8844 239.729C46.1501 239.381 46.2829 238.869 46.2829 238.193C46.2829 237.514 46.1501 237.002 45.8844 236.658C45.6188 236.314 45.2243 236.143 44.7008 236.143ZM54.312 232.445V233.535C54.0659 233.391 53.8042 233.281 53.5269 233.207C53.2495 233.129 52.9604 233.09 52.6597 233.09C51.9097 233.09 51.3413 233.373 50.9546 233.939C50.5679 234.502 50.3745 235.332 50.3745 236.43C50.562 236.039 50.8218 235.74 51.1538 235.533C51.4858 235.322 51.8667 235.217 52.2964 235.217C53.1401 235.217 53.7925 235.477 54.2534 235.996C54.7183 236.512 54.9507 237.244 54.9507 238.193C54.9507 239.139 54.7124 239.871 54.2358 240.391C53.7593 240.91 53.0894 241.17 52.2261 241.17C51.2104 241.17 50.4663 240.807 49.9936 240.08C49.521 239.35 49.2847 238.201 49.2847 236.635C49.2847 235.158 49.5679 234.033 50.1343 233.26C50.7046 232.482 51.5288 232.094 52.6069 232.094C52.896 232.094 53.1851 232.125 53.4741 232.188C53.7632 232.246 54.0425 232.332 54.312 232.445ZM52.2026 236.143C51.6987 236.143 51.3022 236.324 51.0132 236.688C50.7241 237.051 50.5796 237.553 50.5796 238.193C50.5796 238.834 50.7241 239.336 51.0132 239.699C51.3022 240.062 51.6987 240.244 52.2026 240.244C52.7261 240.244 53.1206 240.072 53.3862 239.729C53.6519 239.381 53.7847 238.869 53.7847 238.193C53.7847 237.514 53.6519 237.002 53.3862 236.658C53.1206 236.314 52.7261 236.143 52.2026 236.143ZM59.6165 236.846C59.0892 236.846 58.681 236.994 58.3919 237.291C58.1068 237.584 57.9642 238 57.9642 238.539C57.9642 239.078 58.1087 239.498 58.3978 239.799C58.6908 240.096 59.097 240.244 59.6165 240.244C60.1478 240.244 60.556 240.098 60.8411 239.805C61.1302 239.508 61.2747 239.086 61.2747 238.539C61.2747 238.004 61.1283 237.588 60.8353 237.291C60.5462 236.994 60.14 236.846 59.6165 236.846ZM58.5853 236.354C58.0814 236.225 57.6868 235.984 57.4017 235.633C57.1204 235.281 56.9798 234.857 56.9798 234.361C56.9798 233.666 57.2161 233.115 57.6888 232.709C58.1615 232.299 58.804 232.094 59.6165 232.094C60.4329 232.094 61.0775 232.299 61.5501 232.709C62.0228 233.115 62.2591 233.666 62.2591 234.361C62.2591 234.857 62.1165 235.281 61.8314 235.633C61.5501 235.984 61.1575 236.225 60.6536 236.354C61.2396 236.482 61.6868 236.742 61.9954 237.133C62.3079 237.523 62.4642 238.029 62.4642 238.65C62.4642 239.439 62.2122 240.057 61.7083 240.502C61.2044 240.947 60.5072 241.17 59.6165 241.17C58.7259 241.17 58.0286 240.949 57.5247 240.508C57.0247 240.062 56.7747 239.447 56.7747 238.662C56.7747 238.037 56.929 237.529 57.2376 237.139C57.5501 236.744 57.9993 236.482 58.5853 236.354ZM58.1575 234.473C58.1575 234.941 58.2825 235.299 58.5325 235.545C58.7825 235.791 59.1439 235.914 59.6165 235.914C60.0931 235.914 60.4564 235.791 60.7064 235.545C60.9564 235.299 61.0814 234.941 61.0814 234.473C61.0814 233.996 60.9564 233.633 60.7064 233.383C60.4603 233.133 60.097 233.008 59.6165 233.008C59.1439 233.008 58.7825 233.135 58.5325 233.389C58.2825 233.639 58.1575 234 58.1575 234.473ZM69.3156 232.445V233.535C69.0695 233.391 68.8078 233.281 68.5304 233.207C68.2531 233.129 67.964 233.09 67.6632 233.09C66.9132 233.09 66.3449 233.373 65.9582 233.939C65.5714 234.502 65.3781 235.332 65.3781 236.43C65.5656 236.039 65.8254 235.74 66.1574 235.533C66.4894 235.322 66.8703 235.217 67.3 235.217C68.1437 235.217 68.7961 235.477 69.257 235.996C69.7218 236.512 69.9543 237.244 69.9543 238.193C69.9543 239.139 69.716 239.871 69.2394 240.391C68.7629 240.91 68.0929 241.17 67.2296 241.17C66.214 241.17 65.4699 240.807 64.9972 240.08C64.5246 239.35 64.2882 238.201 64.2882 236.635C64.2882 235.158 64.5714 234.033 65.1379 233.26C65.7082 232.482 66.5324 232.094 67.6105 232.094C67.8996 232.094 68.1886 232.125 68.4777 232.188C68.7668 232.246 69.0461 232.332 69.3156 232.445ZM67.2062 236.143C66.7023 236.143 66.3058 236.324 66.0168 236.688C65.7277 237.051 65.5832 237.553 65.5832 238.193C65.5832 238.834 65.7277 239.336 66.0168 239.699C66.3058 240.062 66.7023 240.244 67.2062 240.244C67.7296 240.244 68.1242 240.072 68.3898 239.729C68.6554 239.381 68.7882 238.869 68.7882 238.193C68.7882 237.514 68.6554 237.002 68.3898 236.658C68.1242 236.314 67.7296 236.143 67.2062 236.143ZM74.5029 237.121C75.0068 237.121 75.4014 236.939 75.6865 236.576C75.9756 236.213 76.1201 235.711 76.1201 235.07C76.1201 234.43 75.9756 233.928 75.6865 233.564C75.4014 233.201 75.0068 233.02 74.5029 233.02C73.9795 233.02 73.585 233.193 73.3193 233.541C73.0537 233.885 72.9209 234.395 72.9209 235.07C72.9209 235.75 73.0518 236.262 73.3135 236.605C73.5791 236.949 73.9756 237.121 74.5029 237.121ZM72.3935 240.818V239.729C72.6396 239.873 72.9014 239.984 73.1787 240.062C73.456 240.137 73.7451 240.174 74.0459 240.174C74.7959 240.174 75.3623 239.893 75.7451 239.33C76.1318 238.764 76.3252 237.932 76.3252 236.834C76.1416 237.225 75.8838 237.525 75.5518 237.736C75.2197 237.943 74.8389 238.047 74.4092 238.047C73.5654 238.047 72.9111 237.787 72.4463 237.268C71.9853 236.748 71.7549 236.012 71.7549 235.059C71.7549 234.117 71.9912 233.389 72.4639 232.873C72.9404 232.354 73.6123 232.094 74.4795 232.094C75.4951 232.094 76.2393 232.459 76.7119 233.189C77.1846 233.92 77.4209 235.068 77.4209 236.635C77.4209 238.107 77.1357 239.232 76.5654 240.01C75.999 240.783 75.1748 241.17 74.0928 241.17C73.8076 241.17 73.5205 241.139 73.2314 241.076C72.9424 241.018 72.6631 240.932 72.3935 240.818ZM84.3192 232.445V233.535C84.0731 233.391 83.8114 233.281 83.534 233.207C83.2567 233.129 82.9676 233.09 82.6668 233.09C81.9168 233.09 81.3485 233.373 80.9617 233.939C80.575 234.502 80.3817 235.332 80.3817 236.43C80.5692 236.039 80.8289 235.74 81.161 235.533C81.493 235.322 81.8739 235.217 82.3035 235.217C83.1473 235.217 83.7996 235.477 84.2606 235.996C84.7254 236.512 84.9578 237.244 84.9578 238.193C84.9578 239.139 84.7196 239.871 84.243 240.391C83.7664 240.91 83.0965 241.17 82.2332 241.17C81.2176 241.17 80.4735 240.807 80.0008 240.08C79.5281 239.35 79.2918 238.201 79.2918 236.635C79.2918 235.158 79.575 234.033 80.1414 233.26C80.7117 232.482 81.536 232.094 82.6141 232.094C82.9031 232.094 83.1922 232.125 83.4813 232.188C83.7703 232.246 84.0496 232.332 84.3192 232.445ZM82.2098 236.143C81.7059 236.143 81.3094 236.324 81.0203 236.688C80.7313 237.051 80.5867 237.553 80.5867 238.193C80.5867 238.834 80.7313 239.336 81.0203 239.699C81.3094 240.062 81.7059 240.244 82.2098 240.244C82.7332 240.244 83.1278 240.072 83.3934 239.729C83.659 239.381 83.7918 238.869 83.7918 238.193C83.7918 237.514 83.659 237.002 83.3934 236.658C83.1278 236.314 82.7332 236.143 82.2098 236.143Z" fill="white"/>
<path d="M32.2871 89.6895C31.9863 89.8496 31.6777 89.9688 31.3613 90.0469C31.0449 90.1289 30.709 90.1699 30.3535 90.1699C29.2324 90.1699 28.3613 89.7734 27.7402 88.9805C27.123 88.1875 26.8145 87.0723 26.8145 85.6348C26.8145 84.2051 27.125 83.0918 27.7461 82.2949C28.3711 81.4941 29.2402 81.0938 30.3535 81.0938C30.709 81.0938 31.0449 81.1348 31.3613 81.2168C31.6777 81.2949 31.9863 81.4141 32.2871 81.5742V82.7871C31.998 82.5488 31.6875 82.3672 31.3555 82.2422C31.0234 82.1172 30.6895 82.0547 30.3535 82.0547C29.584 82.0547 29.0078 82.3516 28.625 82.9453C28.2422 83.5391 28.0508 84.4355 28.0508 85.6348C28.0508 86.8301 28.2422 87.7246 28.625 88.3184C29.0078 88.9121 29.584 89.209 30.3535 89.209C30.6973 89.209 31.0332 89.1465 31.3613 89.0215C31.6934 88.8965 32.002 88.7148 32.2871 88.4766V89.6895ZM37.7147 87.627C37.7147 88.1113 37.8026 88.4766 37.9784 88.7227C38.158 88.9688 38.4217 89.0918 38.7694 89.0918H40.0291V90H38.6639C38.0194 90 37.5194 89.7949 37.1639 89.3848C36.8123 88.9707 36.6366 88.3848 36.6366 87.627V81.6914H34.908V80.8477H37.7147V87.627ZM47.5661 86.1797V86.707H42.8962V86.7422C42.8649 87.6367 43.0348 88.2793 43.4059 88.6699C43.7809 89.0605 44.3083 89.2559 44.988 89.2559C45.3317 89.2559 45.6911 89.2012 46.0661 89.0918C46.4411 88.9824 46.8415 88.8164 47.2673 88.5938V89.666C46.8571 89.834 46.4606 89.959 46.0778 90.041C45.6989 90.127 45.3317 90.1699 44.9762 90.1699C43.9567 90.1699 43.1598 89.8652 42.5856 89.2559C42.0114 88.6426 41.7243 87.7988 41.7243 86.7246C41.7243 85.6777 42.0055 84.8418 42.568 84.2168C43.1305 83.5918 43.8805 83.2793 44.818 83.2793C45.654 83.2793 46.3122 83.5625 46.7926 84.1289C47.277 84.6953 47.5348 85.3789 47.5661 86.1797ZM46.488 85.8633C46.4411 85.4102 46.2751 85.0195 45.9899 84.6914C45.7087 84.3594 45.3024 84.1934 44.7712 84.1934C44.2516 84.1934 43.8239 84.3652 43.488 84.709C43.152 85.0527 42.9684 85.4395 42.9372 85.8691L46.488 85.8633ZM52.6186 86.7012H52.2612C51.6323 86.7012 51.1577 86.8125 50.8374 87.0352C50.521 87.2539 50.3628 87.582 50.3628 88.0195C50.3628 88.4141 50.4819 88.7207 50.7202 88.9395C50.9585 89.1582 51.2886 89.2676 51.7104 89.2676C52.3042 89.2676 52.771 89.0625 53.1108 88.6523C53.4507 88.2383 53.6226 87.668 53.6265 86.9414V86.7012H52.6186ZM54.7104 86.2559V90H53.6265V89.0273C53.396 89.418 53.105 89.707 52.7534 89.8945C52.4058 90.0781 51.9819 90.1699 51.4819 90.1699C50.814 90.1699 50.2808 89.9824 49.8823 89.6074C49.4839 89.2285 49.2847 88.7227 49.2847 88.0898C49.2847 87.3594 49.5288 86.8047 50.0171 86.4258C50.5093 86.0469 51.23 85.8574 52.1792 85.8574H53.6265V85.6875C53.6226 85.1641 53.4897 84.7852 53.228 84.5508C52.9663 84.3125 52.5483 84.1934 51.9741 84.1934C51.6069 84.1934 51.2358 84.2461 50.8608 84.3516C50.4858 84.457 50.1206 84.6113 49.7651 84.8145V83.7363C50.1636 83.584 50.5444 83.4707 50.9077 83.3965C51.2749 83.3184 51.6304 83.2793 51.9741 83.2793C52.5171 83.2793 52.98 83.3594 53.3628 83.5195C53.7495 83.6797 54.062 83.9199 54.3003 84.2402C54.4487 84.4355 54.5542 84.6777 54.6167 84.9668C54.6792 85.252 54.7104 85.6816 54.7104 86.2559ZM62.1654 85.9336V90H61.0814V85.9336C61.0814 85.3438 60.9779 84.9102 60.7708 84.6328C60.5638 84.3555 60.2396 84.2168 59.7982 84.2168C59.2943 84.2168 58.9056 84.3965 58.6322 84.7559C58.3626 85.1113 58.2279 85.623 58.2279 86.291V90H57.1497V83.4375H58.2279V84.4219C58.4193 84.0469 58.679 83.7637 59.0072 83.5723C59.3353 83.377 59.724 83.2793 60.1732 83.2793C60.8411 83.2793 61.3392 83.5 61.6673 83.9414C61.9993 84.3789 62.1654 85.043 62.1654 85.9336ZM67.7218 87.627C67.7218 88.1113 67.8097 88.4766 67.9855 88.7227C68.1652 88.9688 68.4289 89.0918 68.7765 89.0918H70.0363V90H68.6711C68.0265 90 67.5265 89.7949 67.1711 89.3848C66.8195 88.9707 66.6437 88.3848 66.6437 87.627V81.6914H64.9152V80.8477H67.7218V87.627ZM75.124 86.7012H74.7666C74.1377 86.7012 73.6631 86.8125 73.3428 87.0352C73.0264 87.2539 72.8682 87.582 72.8682 88.0195C72.8682 88.4141 72.9873 88.7207 73.2256 88.9395C73.4639 89.1582 73.7939 89.2676 74.2158 89.2676C74.8096 89.2676 75.2764 89.0625 75.6162 88.6523C75.956 88.2383 76.1279 87.668 76.1318 86.9414V86.7012H75.124ZM77.2158 86.2559V90H76.1318V89.0273C75.9014 89.418 75.6103 89.707 75.2588 89.8945C74.9111 90.0781 74.4873 90.1699 73.9873 90.1699C73.3193 90.1699 72.7861 89.9824 72.3877 89.6074C71.9893 89.2285 71.79 88.7227 71.79 88.0898C71.79 87.3594 72.0342 86.8047 72.5225 86.4258C73.0146 86.0469 73.7353 85.8574 74.6846 85.8574H76.1318V85.6875C76.1279 85.1641 75.9951 84.7852 75.7334 84.5508C75.4717 84.3125 75.0537 84.1934 74.4795 84.1934C74.1123 84.1934 73.7412 84.2461 73.3662 84.3516C72.9912 84.457 72.626 84.6113 72.2705 84.8145V83.7363C72.6689 83.584 73.0498 83.4707 73.4131 83.3965C73.7803 83.3184 74.1357 83.2793 74.4795 83.2793C75.0225 83.2793 75.4853 83.3594 75.8682 83.5195C76.2549 83.6797 76.5674 83.9199 76.8057 84.2402C76.9541 84.4355 77.0596 84.6777 77.1221 84.9668C77.1846 85.252 77.2158 85.6816 77.2158 86.2559ZM83.8914 86.7246C83.8914 85.8887 83.7586 85.2578 83.493 84.832C83.2274 84.4062 82.8348 84.1934 82.3153 84.1934C81.7918 84.1934 81.3953 84.4082 81.1258 84.8379C80.8563 85.2637 80.7215 85.8926 80.7215 86.7246C80.7215 87.5527 80.8563 88.1816 81.1258 88.6113C81.3953 89.041 81.7918 89.2559 82.3153 89.2559C82.8348 89.2559 83.2274 89.043 83.493 88.6172C83.7586 88.1914 83.8914 87.5605 83.8914 86.7246ZM80.7215 84.2754C80.8934 83.9551 81.1297 83.709 81.4305 83.5371C81.7352 83.3652 82.0867 83.2793 82.4852 83.2793C83.2742 83.2793 83.8953 83.584 84.3485 84.1934C84.8016 84.7988 85.0281 85.6348 85.0281 86.7012C85.0281 87.7832 84.7996 88.6328 84.3426 89.25C83.8895 89.8633 83.2664 90.1699 82.4735 90.1699C82.0828 90.1699 81.7371 90.0859 81.4364 89.918C81.1395 89.7461 80.9012 89.498 80.7215 89.1738V90H79.6434V80.8828H80.7215V84.2754ZM93.7915 81.252H100.465V82.248H97.729V90H96.5395V82.248H93.7915V81.252ZM102.278 81.252H103.467V89.0039H107.692V90H102.278V81.252ZM108.731 81.2812H110.313L111.824 85.7227L113.348 81.2812H114.936V90H113.84V82.2949L112.281 86.8887H111.385L109.82 82.2949V90H108.731V81.2812ZM118.535 83.4434H120.363V85.5586H118.535V83.4434ZM118.535 87.8672H120.363V90H118.535V87.8672ZM32.2871 219.689C31.9863 219.85 31.6777 219.969 31.3613 220.047C31.0449 220.129 30.709 220.17 30.3535 220.17C29.2324 220.17 28.3613 219.773 27.7402 218.98C27.123 218.188 26.8145 217.072 26.8145 215.635C26.8145 214.205 27.125 213.092 27.7461 212.295C28.3711 211.494 29.2402 211.094 30.3535 211.094C30.709 211.094 31.0449 211.135 31.3613 211.217C31.6777 211.295 31.9863 211.414 32.2871 211.574V212.787C31.998 212.549 31.6875 212.367 31.3555 212.242C31.0234 212.117 30.6895 212.055 30.3535 212.055C29.584 212.055 29.0078 212.352 28.625 212.945C28.2422 213.539 28.0508 214.436 28.0508 215.635C28.0508 216.83 28.2422 217.725 28.625 218.318C29.0078 218.912 29.584 219.209 30.3535 219.209C30.6973 219.209 31.0332 219.146 31.3613 219.021C31.6934 218.896 32.002 218.715 32.2871 218.477V219.689ZM37.7147 217.627C37.7147 218.111 37.8026 218.477 37.9784 218.723C38.158 218.969 38.4217 219.092 38.7694 219.092H40.0291V220H38.6639C38.0194 220 37.5194 219.795 37.1639 219.385C36.8123 218.971 36.6366 218.385 36.6366 217.627V211.691H34.908V210.848H37.7147V217.627ZM47.5661 216.18V216.707H42.8962V216.742C42.8649 217.637 43.0348 218.279 43.4059 218.67C43.7809 219.061 44.3083 219.256 44.988 219.256C45.3317 219.256 45.6911 219.201 46.0661 219.092C46.4411 218.982 46.8415 218.816 47.2673 218.594V219.666C46.8571 219.834 46.4606 219.959 46.0778 220.041C45.6989 220.127 45.3317 220.17 44.9762 220.17C43.9567 220.17 43.1598 219.865 42.5856 219.256C42.0114 218.643 41.7243 217.799 41.7243 216.725C41.7243 215.678 42.0055 214.842 42.568 214.217C43.1305 213.592 43.8805 213.279 44.818 213.279C45.654 213.279 46.3122 213.562 46.7926 214.129C47.277 214.695 47.5348 215.379 47.5661 216.18ZM46.488 215.863C46.4411 215.41 46.2751 215.02 45.9899 214.691C45.7087 214.359 45.3024 214.193 44.7712 214.193C44.2516 214.193 43.8239 214.365 43.488 214.709C43.152 215.053 42.9684 215.439 42.9372 215.869L46.488 215.863ZM52.6186 216.701H52.2612C51.6323 216.701 51.1577 216.812 50.8374 217.035C50.521 217.254 50.3628 217.582 50.3628 218.02C50.3628 218.414 50.4819 218.721 50.7202 218.939C50.9585 219.158 51.2886 219.268 51.7104 219.268C52.3042 219.268 52.771 219.062 53.1108 218.652C53.4507 218.238 53.6226 217.668 53.6265 216.941V216.701H52.6186ZM54.7104 216.256V220H53.6265V219.027C53.396 219.418 53.105 219.707 52.7534 219.895C52.4058 220.078 51.9819 220.17 51.4819 220.17C50.814 220.17 50.2808 219.982 49.8823 219.607C49.4839 219.229 49.2847 218.723 49.2847 218.09C49.2847 217.359 49.5288 216.805 50.0171 216.426C50.5093 216.047 51.23 215.857 52.1792 215.857H53.6265V215.688C53.6226 215.164 53.4897 214.785 53.228 214.551C52.9663 214.312 52.5483 214.193 51.9741 214.193C51.6069 214.193 51.2358 214.246 50.8608 214.352C50.4858 214.457 50.1206 214.611 49.7651 214.814V213.736C50.1636 213.584 50.5444 213.471 50.9077 213.396C51.2749 213.318 51.6304 213.279 51.9741 213.279C52.5171 213.279 52.98 213.359 53.3628 213.52C53.7495 213.68 54.062 213.92 54.3003 214.24C54.4487 214.436 54.5542 214.678 54.6167 214.967C54.6792 215.252 54.7104 215.682 54.7104 216.256ZM62.1654 215.934V220H61.0814V215.934C61.0814 215.344 60.9779 214.91 60.7708 214.633C60.5638 214.355 60.2396 214.217 59.7982 214.217C59.2943 214.217 58.9056 214.396 58.6322 214.756C58.3626 215.111 58.2279 215.623 58.2279 216.291V220H57.1497V213.438H58.2279V214.422C58.4193 214.047 58.679 213.764 59.0072 213.572C59.3353 213.377 59.724 213.279 60.1732 213.279C60.8411 213.279 61.3392 213.5 61.6673 213.941C61.9993 214.379 62.1654 215.043 62.1654 215.934ZM67.7218 217.627C67.7218 218.111 67.8097 218.477 67.9855 218.723C68.1652 218.969 68.4289 219.092 68.7765 219.092H70.0363V220H68.6711C68.0265 220 67.5265 219.795 67.1711 219.385C66.8195 218.971 66.6437 218.385 66.6437 217.627V211.691H64.9152V210.848H67.7218V217.627ZM75.124 216.701H74.7666C74.1377 216.701 73.6631 216.812 73.3428 217.035C73.0264 217.254 72.8682 217.582 72.8682 218.02C72.8682 218.414 72.9873 218.721 73.2256 218.939C73.4639 219.158 73.7939 219.268 74.2158 219.268C74.8096 219.268 75.2764 219.062 75.6162 218.652C75.956 218.238 76.1279 217.668 76.1318 216.941V216.701H75.124ZM77.2158 216.256V220H76.1318V219.027C75.9014 219.418 75.6103 219.707 75.2588 219.895C74.9111 220.078 74.4873 220.17 73.9873 220.17C73.3193 220.17 72.7861 219.982 72.3877 219.607C71.9893 219.229 71.79 218.723 71.79 218.09C71.79 217.359 72.0342 216.805 72.5225 216.426C73.0146 216.047 73.7353 215.857 74.6846 215.857H76.1318V215.688C76.1279 215.164 75.9951 214.785 75.7334 214.551C75.4717 214.312 75.0537 214.193 74.4795 214.193C74.1123 214.193 73.7412 214.246 73.3662 214.352C72.9912 214.457 72.626 214.611 72.2705 214.814V213.736C72.6689 213.584 73.0498 213.471 73.4131 213.396C73.7803 213.318 74.1357 213.279 74.4795 213.279C75.0225 213.279 75.4853 213.359 75.8682 213.52C76.2549 213.68 76.5674 213.92 76.8057 214.24C76.9541 214.436 77.0596 214.678 77.1221 214.967C77.1846 215.252 77.2158 215.682 77.2158 216.256ZM83.8914 216.725C83.8914 215.889 83.7586 215.258 83.493 214.832C83.2274 214.406 82.8348 214.193 82.3153 214.193C81.7918 214.193 81.3953 214.408 81.1258 214.838C80.8563 215.264 80.7215 215.893 80.7215 216.725C80.7215 217.553 80.8563 218.182 81.1258 218.611C81.3953 219.041 81.7918 219.256 82.3153 219.256C82.8348 219.256 83.2274 219.043 83.493 218.617C83.7586 218.191 83.8914 217.561 83.8914 216.725ZM80.7215 214.275C80.8934 213.955 81.1297 213.709 81.4305 213.537C81.7352 213.365 82.0867 213.279 82.4852 213.279C83.2742 213.279 83.8953 213.584 84.3485 214.193C84.8016 214.799 85.0281 215.635 85.0281 216.701C85.0281 217.783 84.7996 218.633 84.3426 219.25C83.8895 219.863 83.2664 220.17 82.4735 220.17C82.0828 220.17 81.7371 220.086 81.4364 219.918C81.1395 219.746 80.9012 219.498 80.7215 219.174V220H79.6434V210.883H80.7215V214.275ZM93.7915 211.252H100.465V212.248H97.729V220H96.5395V212.248H93.7915V211.252ZM102.278 211.252H103.467V219.004H107.692V220H102.278V211.252ZM108.731 211.281H110.313L111.824 215.723L113.348 211.281H114.936V220H113.84V212.295L112.281 216.889H111.385L109.82 212.295V220H108.731V211.281ZM118.535 213.443H120.363V215.559H118.535V213.443ZM118.535 217.867H120.363V220H118.535V217.867Z" fill="#00BDD1"/>
<path d="M26.5156 127.369V126.303L32.709 128.752V129.725L26.5156 132.174V131.102L31.4961 129.244L26.5156 127.369ZM47.2907 132.689C46.9899 132.85 46.6813 132.969 46.3649 133.047C46.0485 133.129 45.7126 133.17 45.3571 133.17C44.236 133.17 43.3649 132.773 42.7438 131.98C42.1266 131.188 41.818 130.072 41.818 128.635C41.818 127.205 42.1286 126.092 42.7497 125.295C43.3747 124.494 44.2438 124.094 45.3571 124.094C45.7126 124.094 46.0485 124.135 46.3649 124.217C46.6813 124.295 46.9899 124.414 47.2907 124.574V125.787C47.0016 125.549 46.6911 125.367 46.359 125.242C46.027 125.117 45.693 125.055 45.3571 125.055C44.5876 125.055 44.0114 125.352 43.6286 125.945C43.2458 126.539 43.0544 127.436 43.0544 128.635C43.0544 129.83 43.2458 130.725 43.6286 131.318C44.0114 131.912 44.5876 132.209 45.3571 132.209C45.7008 132.209 46.0368 132.146 46.3649 132.021C46.6969 131.896 47.0055 131.715 47.2907 131.477V132.689ZM52.1147 127.193C51.5679 127.193 51.1538 127.406 50.8726 127.832C50.5913 128.258 50.4507 128.889 50.4507 129.725C50.4507 130.557 50.5913 131.188 50.8726 131.617C51.1538 132.043 51.5679 132.256 52.1147 132.256C52.6655 132.256 53.0815 132.043 53.3628 131.617C53.644 131.188 53.7847 130.557 53.7847 129.725C53.7847 128.889 53.644 128.258 53.3628 127.832C53.0815 127.406 52.6655 127.193 52.1147 127.193ZM52.1147 126.279C53.0249 126.279 53.7202 126.574 54.2007 127.164C54.6851 127.754 54.9272 128.607 54.9272 129.725C54.9272 130.846 54.687 131.701 54.2065 132.291C53.7261 132.877 53.0288 133.17 52.1147 133.17C51.2046 133.17 50.5093 132.877 50.0288 132.291C49.5483 131.701 49.3081 130.846 49.3081 129.725C49.3081 128.607 49.5483 127.754 50.0288 127.164C50.5093 126.574 51.2046 126.279 52.1147 126.279ZM62.1654 128.934V133H61.0814V128.934C61.0814 128.344 60.9779 127.91 60.7708 127.633C60.5638 127.355 60.2396 127.217 59.7982 127.217C59.2943 127.217 58.9056 127.396 58.6322 127.756C58.3626 128.111 58.2279 128.623 58.2279 129.291V133H57.1497V126.438H58.2279V127.422C58.4193 127.047 58.679 126.764 59.0072 126.572C59.3353 126.377 59.724 126.279 60.1732 126.279C60.8411 126.279 61.3392 126.5 61.6673 126.941C61.9993 127.379 62.1654 128.043 62.1654 128.934ZM69.7375 123.883V124.779H68.5129C68.1261 124.779 67.8566 124.859 67.7043 125.02C67.5558 125.176 67.4816 125.455 67.4816 125.857V126.438H69.7375V127.275H67.4816V133H66.4035V127.275H64.6515V126.438H66.4035V125.98C66.4035 125.262 66.5675 124.732 66.8957 124.393C67.2277 124.053 67.7433 123.883 68.4425 123.883H69.7375ZM72.8623 126.461H75.6221V132.162H77.7607V133H72.4053V132.162H74.5439V127.299H72.8623V126.461ZM74.5439 123.912H75.6221V125.271H74.5439V123.912ZM83.5399 127.275V123.883H84.618V133H83.5399V132.174C83.3602 132.498 83.1199 132.746 82.8192 132.918C82.5223 133.086 82.1785 133.17 81.7879 133.17C80.9949 133.17 80.3699 132.863 79.9129 132.25C79.4598 131.633 79.2332 130.783 79.2332 129.701C79.2332 128.635 79.4617 127.799 79.9188 127.193C80.3758 126.584 80.9989 126.279 81.7879 126.279C82.1824 126.279 82.5301 126.365 82.8309 126.537C83.1317 126.705 83.368 126.951 83.5399 127.275ZM80.3699 129.725C80.3699 130.561 80.5028 131.191 80.7684 131.617C81.034 132.043 81.4266 132.256 81.9461 132.256C82.4656 132.256 82.8602 132.041 83.1297 131.611C83.4031 131.182 83.5399 130.553 83.5399 129.725C83.5399 128.893 83.4031 128.264 83.1297 127.838C82.8602 127.408 82.4656 127.193 81.9461 127.193C81.4266 127.193 81.034 127.406 80.7684 127.832C80.5028 128.258 80.3699 128.889 80.3699 129.725ZM92.5768 129.18V129.707H87.9069V129.742C87.8756 130.637 88.0456 131.279 88.4167 131.67C88.7917 132.061 89.319 132.256 89.9987 132.256C90.3424 132.256 90.7018 132.201 91.0768 132.092C91.4518 131.982 91.8522 131.816 92.278 131.594V132.666C91.8678 132.834 91.4713 132.959 91.0885 133.041C90.7096 133.127 90.3424 133.17 89.987 133.17C88.9674 133.17 88.1706 132.865 87.5963 132.256C87.0221 131.643 86.735 130.799 86.735 129.725C86.735 128.678 87.0163 127.842 87.5788 127.217C88.1413 126.592 88.8913 126.279 89.8288 126.279C90.6647 126.279 91.3229 126.562 91.8034 127.129C92.2878 127.695 92.5456 128.379 92.5768 129.18ZM91.4987 128.863C91.4518 128.41 91.2858 128.02 91.0006 127.691C90.7194 127.359 90.3131 127.193 89.7819 127.193C89.2624 127.193 88.8346 127.365 88.4987 127.709C88.1628 128.053 87.9792 128.439 87.9479 128.869L91.4987 128.863ZM99.6743 128.934V133H98.5903V128.934C98.5903 128.344 98.4868 127.91 98.2798 127.633C98.0727 127.355 97.7485 127.217 97.3071 127.217C96.8032 127.217 96.4145 127.396 96.1411 127.756C95.8716 128.111 95.7368 128.623 95.7368 129.291V133H94.6587V126.438H95.7368V127.422C95.9282 127.047 96.188 126.764 96.5161 126.572C96.8442 126.377 97.2329 126.279 97.6821 126.279C98.3501 126.279 98.8481 126.5 99.1763 126.941C99.5083 127.379 99.6743 128.043 99.6743 128.934ZM107.235 132.666C106.946 132.834 106.647 132.959 106.338 133.041C106.034 133.127 105.721 133.17 105.401 133.17C104.385 133.17 103.59 132.865 103.016 132.256C102.446 131.646 102.16 130.803 102.16 129.725C102.16 128.646 102.446 127.803 103.016 127.193C103.59 126.584 104.385 126.279 105.401 126.279C105.717 126.279 106.026 126.32 106.326 126.402C106.627 126.484 106.93 126.611 107.235 126.783V127.914C106.95 127.66 106.662 127.477 106.373 127.363C106.088 127.25 105.764 127.193 105.401 127.193C104.725 127.193 104.205 127.412 103.842 127.85C103.479 128.287 103.297 128.912 103.297 129.725C103.297 130.533 103.479 131.158 103.842 131.6C104.209 132.037 104.729 132.256 105.401 132.256C105.776 132.256 106.112 132.199 106.409 132.086C106.705 131.969 106.981 131.789 107.235 131.547V132.666ZM115.082 129.18V129.707H110.412V129.742C110.381 130.637 110.551 131.279 110.922 131.67C111.297 132.061 111.824 132.256 112.504 132.256C112.848 132.256 113.207 132.201 113.582 132.092C113.957 131.982 114.358 131.816 114.783 131.594V132.666C114.373 132.834 113.977 132.959 113.594 133.041C113.215 133.127 112.848 133.17 112.492 133.17C111.473 133.17 110.676 132.865 110.102 132.256C109.527 131.643 109.24 130.799 109.24 129.725C109.24 128.678 109.522 127.842 110.084 127.217C110.647 126.592 111.397 126.279 112.334 126.279C113.17 126.279 113.828 126.562 114.309 127.129C114.793 127.695 115.051 128.379 115.082 129.18ZM114.004 128.863C113.957 128.41 113.791 128.02 113.506 127.691C113.225 127.359 112.819 127.193 112.287 127.193C111.768 127.193 111.34 127.365 111.004 127.709C110.668 128.053 110.485 128.439 110.453 128.869L114.004 128.863ZM118.535 126.443H120.363V128.559H118.535V126.443ZM118.535 130.867H120.363V133H118.535V130.867ZM134.517 129.121C135.021 129.121 135.416 128.939 135.701 128.576C135.99 128.213 136.134 127.711 136.134 127.07C136.134 126.43 135.99 125.928 135.701 125.564C135.416 125.201 135.021 125.02 134.517 125.02C133.994 125.02 133.599 125.193 133.334 125.541C133.068 125.885 132.935 126.395 132.935 127.07C132.935 127.75 133.066 128.262 133.328 128.605C133.593 128.949 133.99 129.121 134.517 129.121ZM132.408 132.818V131.729C132.654 131.873 132.916 131.984 133.193 132.062C133.47 132.137 133.759 132.174 134.06 132.174C134.81 132.174 135.377 131.893 135.759 131.33C136.146 130.764 136.34 129.932 136.34 128.834C136.156 129.225 135.898 129.525 135.566 129.736C135.234 129.943 134.853 130.047 134.423 130.047C133.58 130.047 132.925 129.787 132.461 129.268C132 128.748 131.769 128.012 131.769 127.059C131.769 126.117 132.006 125.389 132.478 124.873C132.955 124.354 133.627 124.094 134.494 124.094C135.509 124.094 136.254 124.459 136.726 125.189C137.199 125.92 137.435 127.068 137.435 128.635C137.435 130.107 137.15 131.232 136.58 132.01C136.013 132.783 135.189 133.17 134.107 133.17C133.822 133.17 133.535 133.139 133.246 133.076C132.957 133.018 132.677 132.932 132.408 132.818ZM143.074 128.318C143.648 128.471 144.087 128.742 144.392 129.133C144.697 129.52 144.849 130.004 144.849 130.586C144.849 131.391 144.578 132.023 144.035 132.484C143.496 132.941 142.748 133.17 141.791 133.17C141.388 133.17 140.978 133.133 140.56 133.059C140.142 132.984 139.732 132.877 139.33 132.736V131.559C139.728 131.766 140.121 131.92 140.507 132.021C140.894 132.123 141.279 132.174 141.662 132.174C142.31 132.174 142.808 132.027 143.156 131.734C143.503 131.441 143.677 131.02 143.677 130.469C143.677 129.961 143.503 129.559 143.156 129.262C142.808 128.961 142.337 128.811 141.744 128.811H140.841V127.838H141.744C142.287 127.838 142.71 127.719 143.015 127.48C143.32 127.242 143.472 126.91 143.472 126.484C143.472 126.035 143.33 125.691 143.044 125.453C142.763 125.211 142.361 125.09 141.837 125.09C141.49 125.09 141.13 125.129 140.759 125.207C140.388 125.285 139.999 125.402 139.593 125.559V124.469C140.066 124.344 140.486 124.25 140.853 124.188C141.224 124.125 141.552 124.094 141.837 124.094C142.689 124.094 143.369 124.309 143.876 124.738C144.388 125.164 144.644 125.73 144.644 126.438C144.644 126.918 144.509 127.318 144.24 127.639C143.974 127.959 143.585 128.186 143.074 128.318ZM150.107 131.131C150.107 131.436 150.208 131.691 150.411 131.898C150.618 132.105 150.874 132.209 151.179 132.209C151.48 132.209 151.734 132.105 151.941 131.898C152.152 131.688 152.257 131.432 152.257 131.131C152.257 130.83 152.152 130.574 151.941 130.363C151.73 130.152 151.476 130.047 151.179 130.047C150.874 130.047 150.618 130.15 150.411 130.357C150.208 130.564 150.107 130.822 150.107 131.131ZM149.316 131.131C149.316 130.604 149.495 130.16 149.855 129.801C150.214 129.438 150.656 129.256 151.179 129.256C151.429 129.256 151.665 129.303 151.888 129.396C152.115 129.49 152.318 129.627 152.497 129.807C152.677 129.99 152.816 130.195 152.913 130.422C153.011 130.648 153.06 130.885 153.06 131.131C153.06 131.65 152.878 132.092 152.515 132.455C152.152 132.818 151.706 133 151.179 133C150.648 133 150.204 132.822 149.849 132.467C149.493 132.107 149.316 131.662 149.316 131.131ZM146.515 130.422L146.257 129.76L152.79 127.146L153.083 127.809L146.515 130.422ZM147.013 126.484C147.013 126.793 147.115 127.051 147.318 127.258C147.525 127.461 147.783 127.562 148.091 127.562C148.392 127.562 148.648 127.459 148.859 127.252C149.07 127.041 149.175 126.785 149.175 126.484C149.175 126.184 149.07 125.93 148.859 125.723C148.648 125.512 148.392 125.406 148.091 125.406C147.79 125.406 147.534 125.51 147.324 125.717C147.117 125.924 147.013 126.18 147.013 126.484ZM146.222 126.484C146.222 125.957 146.402 125.514 146.761 125.154C147.12 124.791 147.564 124.609 148.091 124.609C148.341 124.609 148.579 124.656 148.806 124.75C149.036 124.844 149.24 124.979 149.415 125.154C149.591 125.33 149.726 125.533 149.82 125.764C149.917 125.99 149.966 126.23 149.966 126.484C149.966 127.008 149.784 127.451 149.421 127.814C149.058 128.174 148.615 128.354 148.091 128.354C147.564 128.354 147.12 128.174 146.761 127.814C146.402 127.455 146.222 127.012 146.222 126.484Z" fill="#17E8C2"/>
<path d="M26.5156 257.369V256.303L32.709 258.752V259.725L26.5156 262.174V261.102L31.4961 259.244L26.5156 257.369ZM47.2907 262.689C46.9899 262.85 46.6813 262.969 46.3649 263.047C46.0485 263.129 45.7126 263.17 45.3571 263.17C44.236 263.17 43.3649 262.773 42.7438 261.98C42.1266 261.188 41.818 260.072 41.818 258.635C41.818 257.205 42.1286 256.092 42.7497 255.295C43.3747 254.494 44.2438 254.094 45.3571 254.094C45.7126 254.094 46.0485 254.135 46.3649 254.217C46.6813 254.295 46.9899 254.414 47.2907 254.574V255.787C47.0016 255.549 46.6911 255.367 46.359 255.242C46.027 255.117 45.693 255.055 45.3571 255.055C44.5876 255.055 44.0114 255.352 43.6286 255.945C43.2458 256.539 43.0544 257.436 43.0544 258.635C43.0544 259.83 43.2458 260.725 43.6286 261.318C44.0114 261.912 44.5876 262.209 45.3571 262.209C45.7008 262.209 46.0368 262.146 46.3649 262.021C46.6969 261.896 47.0055 261.715 47.2907 261.477V262.689ZM52.1147 257.193C51.5679 257.193 51.1538 257.406 50.8726 257.832C50.5913 258.258 50.4507 258.889 50.4507 259.725C50.4507 260.557 50.5913 261.188 50.8726 261.617C51.1538 262.043 51.5679 262.256 52.1147 262.256C52.6655 262.256 53.0815 262.043 53.3628 261.617C53.644 261.188 53.7847 260.557 53.7847 259.725C53.7847 258.889 53.644 258.258 53.3628 257.832C53.0815 257.406 52.6655 257.193 52.1147 257.193ZM52.1147 256.279C53.0249 256.279 53.7202 256.574 54.2007 257.164C54.6851 257.754 54.9272 258.607 54.9272 259.725C54.9272 260.846 54.687 261.701 54.2065 262.291C53.7261 262.877 53.0288 263.17 52.1147 263.17C51.2046 263.17 50.5093 262.877 50.0288 262.291C49.5483 261.701 49.3081 260.846 49.3081 259.725C49.3081 258.607 49.5483 257.754 50.0288 257.164C50.5093 256.574 51.2046 256.279 52.1147 256.279ZM62.1654 258.934V263H61.0814V258.934C61.0814 258.344 60.9779 257.91 60.7708 257.633C60.5638 257.355 60.2396 257.217 59.7982 257.217C59.2943 257.217 58.9056 257.396 58.6322 257.756C58.3626 258.111 58.2279 258.623 58.2279 259.291V263H57.1497V256.438H58.2279V257.422C58.4193 257.047 58.679 256.764 59.0072 256.572C59.3353 256.377 59.724 256.279 60.1732 256.279C60.8411 256.279 61.3392 256.5 61.6673 256.941C61.9993 257.379 62.1654 258.043 62.1654 258.934ZM69.7375 253.883V254.779H68.5129C68.1261 254.779 67.8566 254.859 67.7043 255.02C67.5558 255.176 67.4816 255.455 67.4816 255.857V256.438H69.7375V257.275H67.4816V263H66.4035V257.275H64.6515V256.438H66.4035V255.98C66.4035 255.262 66.5675 254.732 66.8957 254.393C67.2277 254.053 67.7433 253.883 68.4425 253.883H69.7375ZM72.8623 256.461H75.6221V262.162H77.7607V263H72.4053V262.162H74.5439V257.299H72.8623V256.461ZM74.5439 253.912H75.6221V255.271H74.5439V253.912ZM83.5399 257.275V253.883H84.618V263H83.5399V262.174C83.3602 262.498 83.1199 262.746 82.8192 262.918C82.5223 263.086 82.1785 263.17 81.7879 263.17C80.9949 263.17 80.3699 262.863 79.9129 262.25C79.4598 261.633 79.2332 260.783 79.2332 259.701C79.2332 258.635 79.4617 257.799 79.9188 257.193C80.3758 256.584 80.9989 256.279 81.7879 256.279C82.1824 256.279 82.5301 256.365 82.8309 256.537C83.1317 256.705 83.368 256.951 83.5399 257.275ZM80.3699 259.725C80.3699 260.561 80.5028 261.191 80.7684 261.617C81.034 262.043 81.4266 262.256 81.9461 262.256C82.4656 262.256 82.8602 262.041 83.1297 261.611C83.4031 261.182 83.5399 260.553 83.5399 259.725C83.5399 258.893 83.4031 258.264 83.1297 257.838C82.8602 257.408 82.4656 257.193 81.9461 257.193C81.4266 257.193 81.034 257.406 80.7684 257.832C80.5028 258.258 80.3699 258.889 80.3699 259.725ZM92.5768 259.18V259.707H87.9069V259.742C87.8756 260.637 88.0456 261.279 88.4167 261.67C88.7917 262.061 89.319 262.256 89.9987 262.256C90.3424 262.256 90.7018 262.201 91.0768 262.092C91.4518 261.982 91.8522 261.816 92.278 261.594V262.666C91.8678 262.834 91.4713 262.959 91.0885 263.041C90.7096 263.127 90.3424 263.17 89.987 263.17C88.9674 263.17 88.1706 262.865 87.5963 262.256C87.0221 261.643 86.735 260.799 86.735 259.725C86.735 258.678 87.0163 257.842 87.5788 257.217C88.1413 256.592 88.8913 256.279 89.8288 256.279C90.6647 256.279 91.3229 256.562 91.8034 257.129C92.2878 257.695 92.5456 258.379 92.5768 259.18ZM91.4987 258.863C91.4518 258.41 91.2858 258.02 91.0006 257.691C90.7194 257.359 90.3131 257.193 89.7819 257.193C89.2624 257.193 88.8346 257.365 88.4987 257.709C88.1628 258.053 87.9792 258.439 87.9479 258.869L91.4987 258.863ZM99.6743 258.934V263H98.5903V258.934C98.5903 258.344 98.4868 257.91 98.2798 257.633C98.0727 257.355 97.7485 257.217 97.3071 257.217C96.8032 257.217 96.4145 257.396 96.1411 257.756C95.8716 258.111 95.7368 258.623 95.7368 259.291V263H94.6587V256.438H95.7368V257.422C95.9282 257.047 96.188 256.764 96.5161 256.572C96.8442 256.377 97.2329 256.279 97.6821 256.279C98.3501 256.279 98.8481 256.5 99.1763 256.941C99.5083 257.379 99.6743 258.043 99.6743 258.934ZM107.235 262.666C106.946 262.834 106.647 262.959 106.338 263.041C106.034 263.127 105.721 263.17 105.401 263.17C104.385 263.17 103.59 262.865 103.016 262.256C102.446 261.646 102.16 260.803 102.16 259.725C102.16 258.646 102.446 257.803 103.016 257.193C103.59 256.584 104.385 256.279 105.401 256.279C105.717 256.279 106.026 256.32 106.326 256.402C106.627 256.484 106.93 256.611 107.235 256.783V257.914C106.95 257.66 106.662 257.477 106.373 257.363C106.088 257.25 105.764 257.193 105.401 257.193C104.725 257.193 104.205 257.412 103.842 257.85C103.479 258.287 103.297 258.912 103.297 259.725C103.297 260.533 103.479 261.158 103.842 261.6C104.209 262.037 104.729 262.256 105.401 262.256C105.776 262.256 106.112 262.199 106.409 262.086C106.705 261.969 106.981 261.789 107.235 261.547V262.666ZM115.082 259.18V259.707H110.412V259.742C110.381 260.637 110.551 261.279 110.922 261.67C111.297 262.061 111.824 262.256 112.504 262.256C112.848 262.256 113.207 262.201 113.582 262.092C113.957 261.982 114.358 261.816 114.783 261.594V262.666C114.373 262.834 113.977 262.959 113.594 263.041C113.215 263.127 112.848 263.17 112.492 263.17C111.473 263.17 110.676 262.865 110.102 262.256C109.527 261.643 109.24 260.799 109.24 259.725C109.24 258.678 109.522 257.842 110.084 257.217C110.647 256.592 111.397 256.279 112.334 256.279C113.17 256.279 113.828 256.562 114.309 257.129C114.793 257.695 115.051 258.379 115.082 259.18ZM114.004 258.863C113.957 258.41 113.791 258.02 113.506 257.691C113.225 257.359 112.819 257.193 112.287 257.193C111.768 257.193 111.34 257.365 111.004 257.709C110.668 258.053 110.485 258.439 110.453 258.869L114.004 258.863ZM118.535 256.443H120.363V258.559H118.535V256.443ZM118.535 260.867H120.363V263H118.535V260.867ZM133.211 262.004H137.23V263H131.916V262.004C132.646 261.234 133.285 260.555 133.832 259.965C134.379 259.375 134.756 258.959 134.963 258.717C135.353 258.24 135.617 257.855 135.754 257.562C135.89 257.266 135.959 256.963 135.959 256.654C135.959 256.166 135.814 255.783 135.525 255.506C135.24 255.229 134.847 255.09 134.347 255.09C133.992 255.09 133.619 255.154 133.228 255.283C132.838 255.412 132.423 255.607 131.986 255.869V254.674C132.388 254.482 132.783 254.338 133.17 254.24C133.56 254.143 133.945 254.094 134.324 254.094C135.179 254.094 135.867 254.322 136.386 254.779C136.91 255.232 137.172 255.828 137.172 256.566C137.172 256.941 137.084 257.316 136.908 257.691C136.736 258.066 136.455 258.48 136.064 258.934C135.845 259.188 135.527 259.539 135.109 259.988C134.695 260.438 134.062 261.109 133.211 262.004ZM139.74 254.252H144.169V255.248H140.818V257.398C140.986 257.336 141.154 257.291 141.322 257.264C141.494 257.232 141.666 257.217 141.837 257.217C142.744 257.217 143.462 257.484 143.994 258.02C144.525 258.555 144.791 259.279 144.791 260.193C144.791 261.115 144.511 261.842 143.953 262.373C143.398 262.904 142.638 263.17 141.673 263.17C141.208 263.17 140.783 263.139 140.396 263.076C140.013 263.014 139.669 262.92 139.365 262.795V261.594C139.724 261.789 140.085 261.936 140.449 262.033C140.812 262.127 141.183 262.174 141.562 262.174C142.214 262.174 142.716 262.002 143.068 261.658C143.423 261.314 143.601 260.826 143.601 260.193C143.601 259.568 143.417 259.082 143.05 258.734C142.687 258.387 142.179 258.213 141.527 258.213C141.21 258.213 140.902 258.25 140.601 258.324C140.3 258.395 140.013 258.502 139.74 258.646V254.252ZM150.107 261.131C150.107 261.436 150.208 261.691 150.411 261.898C150.618 262.105 150.874 262.209 151.179 262.209C151.48 262.209 151.734 262.105 151.941 261.898C152.152 261.688 152.257 261.432 152.257 261.131C152.257 260.83 152.152 260.574 151.941 260.363C151.73 260.152 151.476 260.047 151.179 260.047C150.874 260.047 150.618 260.15 150.411 260.357C150.208 260.564 150.107 260.822 150.107 261.131ZM149.316 261.131C149.316 260.604 149.495 260.16 149.855 259.801C150.214 259.438 150.656 259.256 151.179 259.256C151.429 259.256 151.665 259.303 151.888 259.396C152.115 259.49 152.318 259.627 152.497 259.807C152.677 259.99 152.816 260.195 152.913 260.422C153.011 260.648 153.06 260.885 153.06 261.131C153.06 261.65 152.878 262.092 152.515 262.455C152.152 262.818 151.706 263 151.179 263C150.648 263 150.204 262.822 149.849 262.467C149.493 262.107 149.316 261.662 149.316 261.131ZM146.515 260.422L146.257 259.76L152.79 257.146L153.083 257.809L146.515 260.422ZM147.013 256.484C147.013 256.793 147.115 257.051 147.318 257.258C147.525 257.461 147.783 257.562 148.091 257.562C148.392 257.562 148.648 257.459 148.859 257.252C149.07 257.041 149.175 256.785 149.175 256.484C149.175 256.184 149.07 255.93 148.859 255.723C148.648 255.512 148.392 255.406 148.091 255.406C147.79 255.406 147.534 255.51 147.324 255.717C147.117 255.924 147.013 256.18 147.013 256.484ZM146.222 256.484C146.222 255.957 146.402 255.514 146.761 255.154C147.12 254.791 147.564 254.609 148.091 254.609C148.341 254.609 148.579 254.656 148.806 254.75C149.036 254.844 149.24 254.979 149.415 255.154C149.591 255.33 149.726 255.533 149.82 255.764C149.917 255.99 149.966 256.23 149.966 256.484C149.966 257.008 149.784 257.451 149.421 257.814C149.058 258.174 148.615 258.354 148.091 258.354C147.564 258.354 147.12 258.174 146.761 257.814C146.402 257.455 146.222 257.012 146.222 256.484Z" fill="#F46B89"/>
<rect x="26" y="302" width="436" height="64" rx="6" fill="#323946"/>
<path d="M45.6094 320.295L44.3613 324.771H46.8574L45.6094 320.295ZM44.8945 319.252H46.3301L49.0078 328H47.7832L47.1387 325.721H44.0742L43.4414 328H42.2168L44.8945 319.252ZM55.4316 321.666V322.721C55.123 322.541 54.8125 322.406 54.5 322.316C54.1875 322.227 53.8691 322.182 53.5449 322.182C53.0566 322.182 52.6914 322.262 52.4492 322.422C52.2109 322.578 52.0918 322.818 52.0918 323.143C52.0918 323.436 52.1816 323.654 52.3613 323.799C52.541 323.943 52.9883 324.084 53.7031 324.221L54.1367 324.303C54.6719 324.404 55.0762 324.607 55.3496 324.912C55.627 325.217 55.7656 325.613 55.7656 326.102C55.7656 326.75 55.5352 327.258 55.0742 327.625C54.6133 327.988 53.9727 328.17 53.1523 328.17C52.8281 328.17 52.4883 328.135 52.1328 328.064C51.7773 327.998 51.3926 327.896 50.9785 327.76V326.646C51.3809 326.854 51.7656 327.01 52.1328 327.115C52.5 327.217 52.8477 327.268 53.1758 327.268C53.6523 327.268 54.0215 327.172 54.2832 326.98C54.5449 326.785 54.6758 326.514 54.6758 326.166C54.6758 325.666 54.1973 325.32 53.2402 325.129L53.1934 325.117L52.7891 325.035C52.168 324.914 51.7148 324.711 51.4297 324.426C51.1445 324.137 51.002 323.744 51.002 323.248C51.002 322.619 51.2148 322.135 51.6406 321.795C52.0664 321.451 52.6738 321.279 53.4629 321.279C53.8145 321.279 54.1523 321.312 54.4766 321.379C54.8008 321.441 55.1191 321.537 55.4316 321.666ZM58.8438 318.883H59.957V324.162L62.7871 321.438H64.0996L61.5156 323.91L64.5039 328H63.1855L60.7598 324.613L59.957 325.369V328H58.8438V318.883ZM73.1973 319.252H79.8711V320.248H77.1348V328H75.9453V320.248H73.1973V319.252ZM81.9121 319.252H83.1016V327.004H87.3262V328H81.9121V319.252ZM88.5938 319.281H90.1758L91.6875 323.723L93.2109 319.281H94.7988V328H93.7031V320.295L92.1445 324.889H91.248L89.6836 320.295V328H88.5938V319.281ZM107.957 324.701H107.6C106.971 324.701 106.496 324.812 106.176 325.035C105.859 325.254 105.701 325.582 105.701 326.02C105.701 326.414 105.82 326.721 106.059 326.939C106.297 327.158 106.627 327.268 107.049 327.268C107.643 327.268 108.109 327.062 108.449 326.652C108.789 326.238 108.961 325.668 108.965 324.941V324.701H107.957ZM110.049 324.256V328H108.965V327.027C108.734 327.418 108.443 327.707 108.092 327.895C107.744 328.078 107.32 328.17 106.82 328.17C106.152 328.17 105.619 327.982 105.221 327.607C104.822 327.229 104.623 326.723 104.623 326.09C104.623 325.359 104.867 324.805 105.355 324.426C105.848 324.047 106.568 323.857 107.518 323.857H108.965V323.688C108.961 323.164 108.828 322.785 108.566 322.551C108.305 322.312 107.887 322.193 107.312 322.193C106.945 322.193 106.574 322.246 106.199 322.352C105.824 322.457 105.459 322.611 105.104 322.814V321.736C105.502 321.584 105.883 321.471 106.246 321.396C106.613 321.318 106.969 321.279 107.312 321.279C107.855 321.279 108.318 321.359 108.701 321.52C109.088 321.68 109.4 321.92 109.639 322.24C109.787 322.436 109.893 322.678 109.955 322.967C110.018 323.252 110.049 323.682 110.049 324.256ZM121.25 324.748C121.25 325.584 121.381 326.215 121.643 326.641C121.908 327.066 122.301 327.279 122.82 327.279C123.34 327.279 123.732 327.066 123.998 326.641C124.268 326.211 124.402 325.58 124.402 324.748C124.402 323.916 124.268 323.287 123.998 322.861C123.732 322.432 123.34 322.217 122.82 322.217C122.301 322.217 121.908 322.43 121.643 322.855C121.381 323.281 121.25 323.912 121.25 324.748ZM124.402 327.186C124.227 327.51 123.988 327.76 123.688 327.936C123.391 328.107 123.045 328.193 122.65 328.193C121.865 328.193 121.244 327.891 120.787 327.285C120.334 326.676 120.107 325.838 120.107 324.771C120.107 323.686 120.334 322.836 120.787 322.223C121.24 321.609 121.861 321.303 122.65 321.303C123.041 321.303 123.385 321.389 123.682 321.561C123.982 321.729 124.223 321.975 124.402 322.299V321.461H125.486V330.52H124.402V327.186ZM128.178 325.516V321.449H129.256V325.516C129.256 326.105 129.359 326.539 129.566 326.816C129.777 327.094 130.102 327.232 130.539 327.232C131.047 327.232 131.436 327.055 131.705 326.699C131.975 326.34 132.109 325.826 132.109 325.158V321.449H133.193V328H132.109V327.016C131.918 327.395 131.656 327.682 131.324 327.877C130.996 328.072 130.611 328.17 130.17 328.17C129.498 328.17 128.998 327.951 128.67 327.514C128.342 327.072 128.178 326.406 128.178 325.516ZM141.328 324.18V324.707H136.658V324.742C136.627 325.637 136.797 326.279 137.168 326.67C137.543 327.061 138.07 327.256 138.75 327.256C139.094 327.256 139.453 327.201 139.828 327.092C140.203 326.982 140.604 326.816 141.029 326.594V327.666C140.619 327.834 140.223 327.959 139.84 328.041C139.461 328.127 139.094 328.17 138.738 328.17C137.719 328.17 136.922 327.865 136.348 327.256C135.773 326.643 135.486 325.799 135.486 324.725C135.486 323.678 135.768 322.842 136.33 322.217C136.893 321.592 137.643 321.279 138.58 321.279C139.416 321.279 140.074 321.562 140.555 322.129C141.039 322.695 141.297 323.379 141.328 324.18ZM140.25 323.863C140.203 323.41 140.037 323.02 139.752 322.691C139.471 322.359 139.064 322.193 138.533 322.193C138.014 322.193 137.586 322.365 137.25 322.709C136.914 323.053 136.73 323.439 136.699 323.869L140.25 323.863ZM148.197 321.666V322.721C147.889 322.541 147.578 322.406 147.266 322.316C146.953 322.227 146.635 322.182 146.311 322.182C145.822 322.182 145.457 322.262 145.215 322.422C144.977 322.578 144.857 322.818 144.857 323.143C144.857 323.436 144.947 323.654 145.127 323.799C145.307 323.943 145.754 324.084 146.469 324.221L146.902 324.303C147.438 324.404 147.842 324.607 148.115 324.912C148.393 325.217 148.531 325.613 148.531 326.102C148.531 326.75 148.301 327.258 147.84 327.625C147.379 327.988 146.738 328.17 145.918 328.17C145.594 328.17 145.254 328.135 144.898 328.064C144.543 327.998 144.158 327.896 143.744 327.76V326.646C144.146 326.854 144.531 327.01 144.898 327.115C145.266 327.217 145.613 327.268 145.941 327.268C146.418 327.268 146.787 327.172 147.049 326.98C147.311 326.785 147.441 326.514 147.441 326.166C147.441 325.666 146.963 325.32 146.006 325.129L145.959 325.117L145.555 325.035C144.934 324.914 144.48 324.711 144.195 324.426C143.91 324.137 143.768 323.744 143.768 323.248C143.768 322.619 143.98 322.135 144.406 321.795C144.832 321.451 145.439 321.279 146.229 321.279C146.58 321.279 146.918 321.312 147.242 321.379C147.566 321.441 147.885 321.537 148.197 321.666ZM153.824 319.574V321.438H156.273V322.275H153.824V325.838C153.824 326.322 153.916 326.66 154.1 326.852C154.283 327.043 154.604 327.139 155.061 327.139H156.273V328H154.955C154.146 328 153.576 327.838 153.244 327.514C152.912 327.189 152.746 326.631 152.746 325.838V322.275H150.994V321.438H152.746V319.574H153.824ZM159.809 321.461H162.568V327.162H164.707V328H159.352V327.162H161.49V322.299H159.809V321.461ZM161.49 318.912H162.568V320.271H161.49V318.912ZM169.297 322.193C168.75 322.193 168.336 322.406 168.055 322.832C167.773 323.258 167.633 323.889 167.633 324.725C167.633 325.557 167.773 326.188 168.055 326.617C168.336 327.043 168.75 327.256 169.297 327.256C169.848 327.256 170.264 327.043 170.545 326.617C170.826 326.188 170.967 325.557 170.967 324.725C170.967 323.889 170.826 323.258 170.545 322.832C170.264 322.406 169.848 322.193 169.297 322.193ZM169.297 321.279C170.207 321.279 170.902 321.574 171.383 322.164C171.867 322.754 172.109 323.607 172.109 324.725C172.109 325.846 171.869 326.701 171.389 327.291C170.908 327.877 170.211 328.17 169.297 328.17C168.387 328.17 167.691 327.877 167.211 327.291C166.73 326.701 166.49 325.846 166.49 324.725C166.49 323.607 166.73 322.754 167.211 322.164C167.691 321.574 168.387 321.279 169.297 321.279ZM179.576 323.934V328H178.492V323.934C178.492 323.344 178.389 322.91 178.182 322.633C177.975 322.355 177.65 322.217 177.209 322.217C176.705 322.217 176.316 322.396 176.043 322.756C175.773 323.111 175.639 323.623 175.639 324.291V328H174.561V321.438H175.639V322.422C175.83 322.047 176.09 321.764 176.418 321.572C176.746 321.377 177.135 321.279 177.584 321.279C178.252 321.279 178.75 321.5 179.078 321.941C179.41 322.379 179.576 323.043 179.576 323.934ZM183.428 325.633H185.49V328H183.428V325.633Z" fill="#A1A5B0"/>
<path d="M429.305 373.082C429.927 373.082 430.397 373.336 430.715 373.844C431.035 374.352 431.195 375.103 431.195 376.098C431.195 377.092 431.035 377.844 430.715 378.352C430.397 378.859 429.927 379.113 429.305 379.113C428.682 379.113 428.212 378.859 427.895 378.352C427.577 377.844 427.418 377.092 427.418 376.098C427.418 375.103 427.577 374.352 427.895 373.844C428.212 373.336 428.682 373.082 429.305 373.082ZM429.305 378.488C429.674 378.488 429.949 378.292 430.129 377.898C430.311 377.505 430.402 376.905 430.402 376.098C430.402 375.668 430.376 375.28 430.324 374.934L428.465 377.844C428.66 378.273 428.94 378.488 429.305 378.488ZM429.305 373.707C428.938 373.707 428.663 373.904 428.48 374.297C428.301 374.69 428.211 375.29 428.211 376.098C428.211 376.465 428.236 376.809 428.285 377.129L430.105 374.227C429.908 373.88 429.641 373.707 429.305 373.707ZM435.691 373.168H436.434L433.363 379.742H432.617L435.691 373.168ZM438.594 378.34H439.82V373.934L438.352 374.641V373.883L439.812 373.188H440.602V378.34H441.812V379H438.594V378.34ZM445.73 373.887L443.891 376.969H445.73V373.887ZM445.602 373.168H446.516V376.969H447.293V377.609H446.516V379H445.73V377.609H443.258V376.863L445.602 373.168ZM450.586 373.082C451.208 373.082 451.678 373.336 451.996 373.844C452.316 374.352 452.477 375.103 452.477 376.098C452.477 377.092 452.316 377.844 451.996 378.352C451.678 378.859 451.208 379.113 450.586 379.113C449.964 379.113 449.493 378.859 449.176 378.352C448.858 377.844 448.699 377.092 448.699 376.098C448.699 375.103 448.858 374.352 449.176 373.844C449.493 373.336 449.964 373.082 450.586 373.082ZM450.586 378.488C450.956 378.488 451.23 378.292 451.41 377.898C451.592 377.505 451.684 376.905 451.684 376.098C451.684 375.668 451.658 375.28 451.605 374.934L449.746 377.844C449.941 378.273 450.221 378.488 450.586 378.488ZM450.586 373.707C450.219 373.707 449.944 373.904 449.762 374.297C449.582 374.69 449.492 375.29 449.492 376.098C449.492 376.465 449.517 376.809 449.566 377.129L451.387 374.227C451.189 373.88 450.922 373.707 450.586 373.707Z" fill="#A1A5B0"/>
<path d="M443 349.667L439.667 353L443 356.333" stroke="#A1A5B0" stroke-linecap="round" stroke-linejoin="round"/>
<path d="M450.333 345.667V350.333C450.333 351.041 450.052 351.719 449.552 352.219C449.052 352.719 448.374 353 447.667 353H439.667" stroke="#A1A5B0" stroke-linecap="round" stroke-linejoin="round"/>
</g>
</g>
<defs>
<filter id="filter0_dd_14_3656" x="0" y="0" width="488" height="402" filterUnits="userSpaceOnUse" color-interpolation-filters="sRGB">
<feFlood flood-opacity="0" result="BackgroundImageFix"/>
<feColorMatrix in="SourceAlpha" type="matrix" values="0 0 0 0 0 0 0 0 0 0 0 0 0 0 0 0 0 0 127 0" result="hardAlpha"/>
<feOffset dy="2"/>
<feGaussianBlur stdDeviation="5"/>
<feComposite in2="hardAlpha" operator="out"/>
<feColorMatrix type="matrix" values="0 0 0 0 0.054902 0 0 0 0 0.0627451 0 0 0 0 0.0823529 0 0 0 0.08 0"/>
<feBlend mode="normal" in2="BackgroundImageFix" result="effect1_dropShadow_14_3656"/>
<feColorMatrix in="SourceAlpha" type="matrix" values="0 0 0 0 0 0 0 0 0 0 0 0 0 0 0 0 0 0 127 0" result="hardAlpha"/>
<feMorphology radius="1" operator="dilate" in="SourceAlpha" result="effect2_dropShadow_14_3656"/>
<feOffset dy="2"/>
<feGaussianBlur stdDeviation="3.5"/>
<feComposite in2="hardAlpha" operator="out"/>
<feColorMatrix type="matrix" values="0 0 0 0 0.054902 0 0 0 0 0.0627451 0 0 0 0 0.0823529 0 0 0 0.1 0"/>
<feBlend mode="normal" in2="effect1_dropShadow_14_3656" result="effect2_dropShadow_14_3656"/>
<feBlend mode="normal" in="SourceGraphic" in2="effect2_dropShadow_14_3656" result="shape"/>
</filter>
<clipPath id="clip0_14_3656">
<rect x="10" y="8" width="468" height="382" rx="10" fill="white"/>
</clipPath>
</defs>
</svg>
